<?xml version="1.0" encoding="utf-8"?>
<!-- Generator: Adobe Illustrator 13.0.0, SVG Export Plug-In . SVG Version: 6.00 Build 14948)  -->
<!DOCTYPE svg PUBLIC "-//W3C//DTD SVG 1.1//EN" "http://www.w3.org/Graphics/SVG/1.1/DTD/svg11.dtd">
<svg version="1.1" id="Layer_1" xmlns="http://www.w3.org/2000/svg" xmlns:xlink="http://www.w3.org/1999/xlink" x="0px" y="0px"
	 width="515px" height="508px" viewBox="0 0 515 508" enable-background="new 0 0 515 508" xml:space="preserve">
<rect opacity="0" fill="#FFFFFF" width="515" height="508"/>
<g>
	<g>
		<g>
			<path fill="#38F99C" d="M188.697,149.036c0,4.668-4.5,8.487-10,8.487H57.926c-5.5,0-10-3.819-10-8.487s4.5-8.486,10-8.486
				h120.771C184.197,140.55,188.697,144.368,188.697,149.036z"/>
		</g>
		<path fill="#33D2FD" d="M29.917,149.038c0,4.686-3.788,8.485-8.459,8.485c-4.672,0-8.458-3.8-8.458-8.485
			c0-4.689,3.787-8.488,8.458-8.488S29.917,144.349,29.917,149.038z"/>
		<path fill="#F948B4" d="M515,149.036c0,4.668-4.5,8.486-10,8.486h-85.632c-5.5,0-10-3.818-10-8.486s4.5-8.486,10-8.486H505
			C510.5,140.55,515,144.368,515,149.036z"/>
		<ellipse fill="#38F99C" cx="382.337" cy="149.036" rx="8.458" ry="8.486"/>
	</g>
	<g>
		<g>
			<path fill="#33D2FD" d="M446.201,219.132c0,4.668-4.5,8.487-10,8.487H283.286c-5.5,0-10-3.819-10-8.487s4.5-8.486,10-8.486
				h152.915C441.701,210.646,446.201,214.464,446.201,219.132z"/>
		</g>
		<ellipse fill="#FECD0A" cx="473.161" cy="219.131" rx="8.459" ry="8.488"/>
		<path fill="#F948B4" d="M221.609,219.132c0,4.668-4.5,8.487-10,8.487h-94.972c-5.5,0-10-3.819-10-8.487s4.5-8.486,10-8.486h94.972
			C217.109,210.646,221.609,214.464,221.609,219.132z"/>
	</g>
	<path fill="#FECD0A" d="M247.18,499.513c0,4.668-4.5,8.487-10,8.487h-94.972c-5.5,0-10-3.819-10-8.487s4.5-8.485,10-8.485h94.972
		C242.68,491.026,247.18,494.845,247.18,499.513z"/>
	<g>
		<path fill="#F948B4" d="M413.43,289.229c0,4.668-4.5,8.485-10,8.485H265.741c-5.5,0-10-3.817-10-8.485s4.5-8.486,10-8.486H403.43
			C408.93,280.741,413.43,284.561,413.43,289.229z"/>
		<g>
			<path fill="#38F99C" d="M93.845,289.229c0,4.668-4.5,8.485-10,8.485h-8.128c-5.5,0-10-3.817-10-8.485s4.5-8.486,10-8.486h8.128
				C89.345,280.741,93.845,284.561,93.845,289.229z"/>
		</g>
		<ellipse fill="#33D2FD" cx="120.594" cy="289.228" rx="8.458" ry="8.486"/>
	</g>
	<g>
		<path fill="#FECD0A" d="M212.908,359.323c0,4.668-4.5,8.485-10,8.485H65.22c-5.5,0-10-3.817-10-8.485c0-4.669,4.5-8.487,10-8.487
			h137.688C208.408,350.836,212.908,354.654,212.908,359.323z"/>
		<ellipse fill="#8181FC" cx="27.906" cy="359.322" rx="8.459" ry="8.487"/>
		<path fill="#8181FC" d="M436.351,359.32c0,4.669-4.5,8.488-10,8.488h-8.129c-5.5,0-10-3.819-10-8.488c0-4.668,4.5-8.486,10-8.486
			h8.129C431.851,350.834,436.351,354.652,436.351,359.32z"/>
		<ellipse fill="#FECD0A" cx="381.332" cy="359.322" rx="8.459" ry="8.487"/>
		<ellipse fill="#38F99C" cx="463.101" cy="359.322" rx="8.459" ry="8.487"/>
	</g>
	<g>
		<g>
			<path fill="#38F99C" d="M514.181,429.418c0,4.668-4.5,8.487-10,8.487H405.77c-5.5,0-10-3.819-10-8.487s4.5-8.487,10-8.487h98.411
				C509.681,420.931,514.181,424.75,514.181,429.418z"/>
		</g>
		<path fill="#F948B4" d="M107.782,429.418c0,4.668-4.5,8.487-10,8.487H10c-5.5,0-10-3.819-10-8.487s4.5-8.487,10-8.487h87.782
			C103.282,420.931,107.782,424.75,107.782,429.418z"/>
		<g>
			<path fill="#33D2FD" d="M377.728,429.418c0,4.668-4.5,8.487-10,8.487h-26.032c-5.5,0-10-3.819-10-8.487s4.5-8.487,10-8.487
				h26.032C373.228,420.931,377.728,424.75,377.728,429.418z"/>
		</g>
		<ellipse fill="#38F99C" cx="134.884" cy="429.418" rx="8.459" ry="8.487"/>
	</g>
	<g>
		<path fill="#FECD0A" d="M230.79,78.865c0,4.668-4.5,8.487-10,8.487h-95.395c-5.5,0-10-3.819-10-8.487s4.5-8.487,10-8.487h95.395
			C226.29,70.378,230.79,74.197,230.79,78.865z"/>
		<path fill="#38F99C" d="M96.541,78.864c0,4.688-3.787,8.488-8.459,8.488s-8.459-3.8-8.459-8.488c0-4.685,3.787-8.486,8.459-8.486
			S96.541,74.18,96.541,78.864z"/>
		<g>
			<path fill="#38F99C" d="M464.904,79.017c0,4.668-4.5,8.488-10,8.488H317.216c-5.5,0-10-3.82-10-8.488s4.5-8.487,10-8.487h137.688
				C460.404,70.529,464.904,74.349,464.904,79.017z"/>
		</g>
	</g>
	<g>
		<path fill="#F948B4" d="M218.475,8.487c0,4.668-4.5,8.487-10,8.487h-87.782c-5.5,0-10-3.819-10-8.487c0-4.668,4.5-8.487,10-8.487
			h87.782C213.975,0,218.475,3.819,218.475,8.487z"/>
		<g>
			<path fill="#33D2FD" d="M340.592,9.206c0,4.668-4.5,8.486-10,8.486h-26.033c-5.5,0-10-3.818-10-8.486s4.5-8.487,10-8.487h26.033
				C336.092,0.719,340.592,4.538,340.592,9.206z"/>
		</g>
		<ellipse fill="#38F99C" cx="245.576" cy="8.487" rx="8.459" ry="8.487"/>
	</g>
</g>
</svg>
