<?xml version="1.0" encoding="utf-8"?>
<!-- Generator: Adobe Illustrator 13.0.0, SVG Export Plug-In . SVG Version: 6.00 Build 14948)  -->
<!DOCTYPE svg PUBLIC "-//W3C//DTD SVG 1.1//EN" "http://www.w3.org/Graphics/SVG/1.1/DTD/svg11.dtd">
<svg version="1.1" id="Layer_1" xmlns="http://www.w3.org/2000/svg" xmlns:xlink="http://www.w3.org/1999/xlink" x="0px" y="0px"
	 width="515px" height="508px" viewBox="0 0 515 508" enable-background="new 0 0 515 508" xml:space="preserve">
<rect opacity="0" fill="#FFFFFF" width="515" height="508"/>
<path fill="#3D4652" d="M332.28,40.617H180.438c-15.097,0-27.381,12.323-27.381,27.469V445.64c0,15.149,12.284,27.473,27.381,27.473
	h151.841c15.1,0,27.382-12.323,27.383-27.472V68.086C359.662,52.94,347.38,40.617,332.28,40.617z M352.359,446.516
	c0,10.627-8.671,19.32-19.268,19.32H179.625c-10.597,0-19.266-8.693-19.266-19.32V67.158c0-10.627,8.669-19.322,19.266-19.322
	h20.205c1.469,0,2.673,1.205,2.673,2.681V52.4c0,5.905,4.82,10.733,10.706,10.733h86.345c5.886,0,10.703-4.828,10.703-10.733v-2.71
	c0.352-1.074,1.36-1.854,2.543-1.854h20.292c10.597,0,19.268,8.694,19.268,19.322V446.516z"/>
<path fill="#2D353D" d="M333.092,47.836H179.625c-10.597,0-19.266,8.694-19.266,19.322v0c0-10.627,8.669-19.322,19.266-19.322
	h20.205c1.469,0,2.673,1.205,2.673,2.681V52.4c0,5.905,4.82,10.733,10.706,10.733h86.345c5.886,0,10.703-4.828,10.703-10.733v-2.71
	c0.352-1.074,1.36-1.854,2.543-1.854L333.092,47.836c10.597,0,19.268,8.695,19.268,19.322v0
	C352.359,56.53,343.688,47.836,333.092,47.836z"/>
<g>
	<g>
		<g>
			<path fill="#3D4652" d="M276.432,55.197c0,1.847-1.492,3.343-3.334,3.343c-1.843,0-3.338-1.496-3.338-3.343
				c0-1.85,1.495-3.345,3.338-3.345C274.939,51.852,276.432,53.348,276.432,55.197z"/>
		</g>
		<path fill="#3D4652" d="M261.288,56.896h-23.276c-0.953,0-1.726-0.773-1.726-1.729v-0.274c0-0.954,0.773-1.729,1.726-1.729h23.276
			c0.95,0,1.726,0.775,1.726,1.729v0.274C263.014,56.123,262.238,56.896,261.288,56.896L261.288,56.896z"/>
	</g>
</g>
</svg>
