<?xml version="1.0" encoding="utf-8"?>
<!-- Generator: Adobe Illustrator 13.0.0, SVG Export Plug-In . SVG Version: 6.00 Build 14948)  -->
<!DOCTYPE svg PUBLIC "-//W3C//DTD SVG 1.1//EN" "http://www.w3.org/Graphics/SVG/1.1/DTD/svg11.dtd">
<svg version="1.1" id="Layer_1" xmlns="http://www.w3.org/2000/svg" xmlns:xlink="http://www.w3.org/1999/xlink" x="0px" y="0px"
	 width="325.109px" height="492.16px" viewBox="0 0 325.109 492.16" enable-background="new 0 0 325.109 492.16"
	 xml:space="preserve">
<rect x="0.054" y="0.08" opacity="0" fill="#FFFFFF" width="325" height="492"/>
<g>
	<path fill="#38F99C" d="M274.675,329.511c0.124-13.809,11.35-24.965,25.187-24.965c13.835,0,25.062,11.156,25.183,24.965h0.01
		v27.586h-0.016c-0.314,13.642-11.463,24.604-25.179,24.604s-24.864-10.965-25.177-24.604h-0.016v-27.586H274.675z"/>
	<path opacity="0.2" fill="#007C6D" enable-background="new    " d="M291.333,320.16c0,1.307,1.059,2.361,2.359,2.361l0,0
		c1.306,0,2.362-1.056,2.362-2.361v-6.299c0-1.304-1.059-2.36-2.362-2.36l0,0c-1.302,0-2.359,1.058-2.359,2.36V320.16z"/>
	<path opacity="0.2" fill="#007C6D" enable-background="new    " d="M314.886,336.087c0,1.331,1.08,2.41,2.41,2.41l0,0
		c1.33,0,2.41-1.079,2.41-2.41v-2.952c0-1.331-1.08-2.412-2.41-2.412l0,0c-1.33,0-2.41,1.081-2.41,2.412V336.087z"/>
	<path opacity="0.2" fill="#007C6D" enable-background="new    " d="M284.739,343.896c0,1.492,1.213,2.704,2.706,2.704l0,0
		c1.496,0,2.706-1.212,2.706-2.704v-7.383c0-1.493-1.21-2.706-2.706-2.706l0,0c-1.493,0-2.706,1.213-2.706,2.706V343.896z"/>
	<path opacity="0.2" fill="#007C6D" enable-background="new    " d="M281.59,368.217c0,0.979,0.792,1.772,1.77,1.772l0,0
		c0.978,0,1.771-0.793,1.771-1.772v-5.216c0-0.978-0.795-1.771-1.771-1.771l0,0c-0.979,0-1.77,0.793-1.77,1.771V368.217z"/>
	<path opacity="0.2" fill="#007C6D" enable-background="new    " d="M311.508,364.691c0,1.168,0.947,2.115,2.114,2.115l0,0
		c1.167,0,2.116-0.947,2.116-2.115v-6.495c0-1.168-0.949-2.115-2.116-2.115l0,0c-1.167,0-2.114,0.947-2.114,2.115V364.691z"/>
	<path fill="#9B4438" d="M298.997,348.994c-0.536,0.538-0.538,1.409,0,1.948l0,0c0.537,0.537,1.41,0.537,1.949,0l7.653-7.653
		c0.535-0.542,0.537-1.411,0-1.948l0,0c-0.536-0.539-1.41-0.539-1.948,0L298.997,348.994z"/>
	<path fill="#9B4438" d="M300.357,330.97c-0.293,0.293-0.293,0.768,0,1.061l0,0c0.296,0.294,0.77,0.294,1.063,0l4.178-4.174
		c0.292-0.295,0.294-0.771,0-1.063l0,0c-0.295-0.293-0.769-0.293-1.063,0L300.357,330.97z"/>
	<path fill="#9B4438" d="M287.054,355.083c0.54-0.537,1.413-0.535,1.952,0l11.538,11.543c0.54,0.539,0.54,1.41,0,1.949
		c-0.536,0.538-1.409,0.536-1.946,0l-3.887-3.888h-0.002l-7.655-7.655C286.518,356.495,286.518,355.624,287.054,355.083z"/>
	<path fill="#9B4438" d="M293.045,333.058c0.299-0.301,0.787-0.301,1.089,0l6.458,6.459c0.3,0.301,0.3,0.788,0,1.089
		c-0.301,0.301-0.789,0.301-1.092,0l-2.172-2.173c0-0.002,0-0.002-0.002-0.002l-4.281-4.283
		C292.744,333.847,292.744,333.36,293.045,333.058z"/>
	<path fill="#9B4438" d="M299.961,325.31c0.76,0,1.377,0.618,1.377,1.378V425.1c0,0.761-0.617,1.379-1.377,1.379
		c-0.764,0-1.381-0.618-1.381-1.379v-98.412C298.581,325.929,299.198,325.31,299.961,325.31z"/>
</g>
</svg>
