<?xml version="1.0" encoding="utf-8"?>
<!-- Generator: Adobe Illustrator 13.0.0, SVG Export Plug-In . SVG Version: 6.00 Build 14948)  -->
<!DOCTYPE svg PUBLIC "-//W3C//DTD SVG 1.1//EN" "http://www.w3.org/Graphics/SVG/1.1/DTD/svg11.dtd">
<svg version="1.1" id="Layer_1" xmlns="http://www.w3.org/2000/svg" xmlns:xlink="http://www.w3.org/1999/xlink" x="0px" y="0px"
	 width="325.109px" height="492.16px" viewBox="0 0 325.109 492.16" enable-background="new 0 0 325.109 492.16"
	 xml:space="preserve">
<rect x="0.054" y="0.08" opacity="0" fill="#FFFFFF" width="325" height="492"/>
<g>
	<path fill="#38F99C" d="M307.269,99.125C306.782,44.34,262.236,0.08,207.341,0.08c-54.901,0-99.446,44.26-99.933,99.045h-0.025
		v109.457h0.062c1.249,54.122,45.475,97.616,99.897,97.616c54.417,0,98.645-43.494,99.892-97.616h0.061V99.125H307.269z"/>
	<path opacity="0.2" fill="#007C6D" enable-background="new    " d="M241.176,62.031c0,5.177-4.196,9.371-9.37,9.371l0,0
		c-5.173,0-9.368-4.194-9.368-9.371v-24.99c0-5.174,4.195-9.371,9.368-9.371l0,0c5.174,0,9.37,4.196,9.37,9.371V62.031z"/>
	<path opacity="0.2" fill="#007C6D" enable-background="new    " d="M147.732,125.218c0,5.286-4.283,9.568-9.565,9.568l0,0
		c-5.284,0-9.567-4.282-9.567-9.568v-11.712c0-5.283,4.284-9.565,9.567-9.565l0,0c5.283,0,9.565,4.284,9.565,9.565V125.218
		L147.732,125.218z"/>
	<path opacity="0.2" fill="#007C6D" enable-background="new    " d="M267.339,156.198c0,5.931-4.81,10.738-10.738,10.738l0,0
		c-5.931,0-10.738-4.807-10.738-10.738v-29.284c0-5.929,4.808-10.737,10.738-10.737l0,0c5.93,0,10.738,4.808,10.738,10.737V156.198z
		"/>
	<path opacity="0.2" fill="#007C6D" enable-background="new    " d="M279.836,252.706c0,3.879-3.149,7.025-7.029,7.025l0,0
		c-3.882,0-7.025-3.146-7.025-7.025v-20.697c0-3.884,3.144-7.026,7.025-7.026l0,0c3.88,0,7.029,3.144,7.029,7.026V252.706z"/>
	<path opacity="0.2" fill="#007C6D" enable-background="new    " d="M161.135,238.715c0,4.636-3.758,8.395-8.394,8.395l0,0
		c-4.637,0-8.395-3.759-8.395-8.395v-25.77c0-4.636,3.759-8.395,8.395-8.395l0,0c4.637,0,8.394,3.76,8.394,8.395V238.715z"/>
	<path fill="#9B4438" d="M210.774,176.432c2.132,2.135,2.136,5.594,0,7.727l0,0c-2.139,2.137-5.596,2.137-7.733,0l-30.369-30.368
		c-2.132-2.135-2.134-5.595,0-7.73l0,0c2.136-2.136,5.598-2.136,7.73,0L210.774,176.432z"/>
	<path fill="#9B4438" d="M205.368,104.911c1.163,1.164,1.167,3.049,0,4.216l0,0c-1.167,1.167-3.051,1.167-4.218,0L184.581,92.56
		c-1.162-1.166-1.164-3.054,0-4.22l0,0c1.165-1.166,3.055-1.166,4.219,0L205.368,104.911z"/>
	<path fill="#9B4438" d="M258.145,200.592c-2.134-2.135-5.592-2.132-7.728,0l-45.794,45.792c-2.134,2.136-2.134,5.594,0,7.734
		c2.137,2.136,5.595,2.132,7.73,0l15.415-15.417c0.002-0.004,0.006-0.004,0.011-0.006l30.365-30.374
		C260.28,206.19,260.28,202.728,258.145,200.592z"/>
	<path fill="#9B4438" d="M234.39,113.205c-1.196-1.195-3.13-1.195-4.325,0l-25.62,25.622c-1.195,1.194-1.195,3.128,0,4.326
		c1.191,1.192,3.129,1.192,4.322,0l8.628-8.625c0-0.004,0-0.004,0.002-0.004l16.993-16.994
		C235.583,116.337,235.583,114.401,234.39,113.205z"/>
	<path fill="#9B4438" d="M206.95,82.463c-3.021,0-5.468,2.45-5.468,5.47v390.453c0,3.018,2.446,5.468,5.468,5.468
		c3.021,0,5.467-2.45,5.467-5.468V87.933C212.417,84.913,209.969,82.463,206.95,82.463z"/>
</g>
</svg>
