<?xml version="1.0" encoding="utf-8"?>
<!-- Generator: Adobe Illustrator 13.0.0, SVG Export Plug-In . SVG Version: 6.00 Build 14948)  -->
<!DOCTYPE svg PUBLIC "-//W3C//DTD SVG 1.1//EN" "http://www.w3.org/Graphics/SVG/1.1/DTD/svg11.dtd">
<svg version="1.1" id="Layer_1" xmlns="http://www.w3.org/2000/svg" xmlns:xlink="http://www.w3.org/1999/xlink" x="0px" y="0px"
	 width="325.109px" height="492.16px" viewBox="0 0 325.109 492.16" enable-background="new 0 0 325.109 492.16"
	 xml:space="preserve">
<rect x="0.054" y="0.08" opacity="0" fill="#FFFFFF" width="325" height="492"/>
<g>
	<path fill="#33D2FD" d="M108.533,385.264l52.928,102.18c0.993,2.425,3.373,4.136,6.155,4.136c3.673,0,6.651-2.978,6.651-6.649
		c0-1.098-0.272-2.131-0.742-3.045l0,0l-46.743-100.117l22.834-56.699l-8.935-3.561l-9.741-7.377l-21.859,61.054
		c-1.081,1.556-1.72,3.442-1.72,5.478c0,1.541,0.371,2.992,1.017,4.281l-0.01,0.004l0.134,0.258
		C108.514,385.226,108.522,385.246,108.533,385.264z M126.535,381.701l0.16,0.058l-0.174,0.023
		C126.525,381.754,126.531,381.728,126.535,381.701z"/>
	<polygon fill="#33D2FD" points="185.566,318.886 149.107,483.867 147.826,485.548 136.689,483.787 160.166,338.837 
		183.642,318.566 	"/>
	<polygon fill="#193442" points="119.928,262.957 104.437,262.957 97.595,234.003 113.085,234.003 	"/>
	<path fill="#EDBF98" d="M95.968,265.546c-0.015-0.022-0.027-0.044-0.041-0.064l-0.133-0.2l0.001-0.016
		c-0.438-0.739-0.693-1.601-0.693-2.521c0-0.273,0.028-0.539,0.07-0.801l-0.016-0.001c0,0,0.013-0.039,0.03-0.097
		c0.064-0.359,0.167-0.708,0.307-1.035c0.432-1.578,1.149-4.69,1.391-8.573c0.185-3.374,2.971-6.053,6.392-6.053
		c3.541,0,6.41,2.87,6.41,6.41c0,2.02-0.936,3.815-2.393,4.992l-0.002,0.002c0,0-1.532,0.934-2.253,5.342c-0.004,0-0.006,0-0.01,0
		c-0.008,0.203-0.028,0.406-0.061,0.604l14.118,10.27l2.217-4.916l16.506,6.09l-0.722,12.98c0,0-0.017,0.852-2.43,0
		c0.58,1.25-0.72,1.204-0.72,2.672c0,5.399-4.377,9.776-9.776,9.776c-3.122,0-5.896-1.471-7.686-3.749l-0.047-0.032l-0.165-0.251
		c-0.181-0.25-0.348-0.504-0.505-0.767L95.968,265.546z"/>
	<path fill="#D8A782" d="M137.088,287.955l0.613-11.016l-8.36-1.241c0,0,1.358,16.447-2.462,24.315
		c4.076-1.179,7.06-4.931,7.06-9.387c0-1.468,1.3-1.422,0.72-2.673C137.072,288.807,137.088,287.955,137.088,287.955z"/>
	<circle fill="#33D2FD" cx="158.029" cy="312.048" r="28.418"/>
	<path fill="#F948B4" d="M129.878,308.255l1.654-11.376l0.242-19.178l-10.472-8.814l11.675-29.491
		c0.272-1.047,0.664-2.046,1.176-2.97l0.051-0.125l0.018-0.002c2.24-3.937,6.5-6.563,11.348-6.49l44.974,0.699
		c6.859,0.107,12.359,5.586,12.597,12.367l0.027,0.049l5.557,34.614l-2.779,2.617l-13.247,12.501l-6.304,21.26L129.878,308.255z"/>
	<line fill="none" x1="140.682" y1="321.508" x2="140.682" y2="321.508"/>
	<path fill="#EDBF98" d="M160.004,230.026v-33.784l9.825-0.506c0.299-1.95,1.979-3.448,4.013-3.448c2.241,0,4.06,1.818,4.06,4.061
		c0,0.691-0.174,1.34-0.48,1.91l1.543,32.067l2.867,0.047c-1.275,5.584-7.736,9.833-15.521,9.833
		c-8.012,0-14.624-4.501-15.623-10.325L160.004,230.026z"/>
	<path fill="#193442" d="M158.527,194.542c-2.489,1.35-5.566,2.149-8.897,2.149c-8.299,0-15.023-4.951-15.023-11.058
		c0-2.577,1.2-4.944,3.205-6.824c-0.02-0.203-0.041-0.403-0.041-0.608c0-4.723,5.175-8.553,11.559-8.553
		c2.647,0,5.08,0.667,7.027,1.773c0.917-1.897,2.618-3.176,4.568-3.176c2.342,0,4.326,1.834,5.021,4.37
		c0.232-0.01,0.463-0.032,0.696-0.032c6.766,0,12.344,4.577,13.262,10.519c1.655,7.217,1.135,22.388,1.135,22.388
		c0,1.875-2.771,4.811-4.648,4.781c-2.43-0.041-2.137-2.907-2.137-4.781l-0.086-5.049c2.088-0.168,3.733-1.913,3.733-4.045
		c0-2.242-1.818-4.061-4.06-4.061c-2.243,0-4.062,1.819-4.062,4.061c0,0.103,0.008,0.202,0.016,0.302l0.012,18.127l-0.008,0.021
		c0.006,0.11,0.021,0.22,0.021,0.333c0,4.044-4.048,7.351-9.18,7.644l-0.021,0.015l-11.019,0.821
		c-0.073,0.008-0.146,0.012-0.222,0.016l-0.244,0.019l-0.005-0.005c-0.034,0.001-0.066,0.005-0.103,0.005
		c-2.693,0-4.897-2.135-5.107-4.847h-0.011l-0.738-14.262c0-0.129,0.104-0.232,0.233-0.232l17.595-0.746
		c2.489-0.022,4.498-2,4.498-4.439c0-0.072-0.008-0.144-0.012-0.217l0.002-0.002l-0.109-1.956
		C162.813,196.772,160.466,195.891,158.527,194.542z"/>
	<path fill="#EDBF98" d="M154.066,186.928c4.564-0.217,8.146-2.261,9.122-5.157c0,0,0.004,0.002,0.004,0.001
		c0-0.013,0.007-0.024,0.009-0.036c0.026-0.083,0.061-0.165,0.084-0.249c0.006-0.021,0.014-0.042,0.022-0.063
		c0.113-0.184,0.313-0.313,0.547-0.313c0.364,0,0.662,0.298,0.662,0.662c0,0.004-0.005,0.007-0.005,0.011h0.005l0.97,17.166
		l-0.002,0.002c0.004,0.073,0.013,0.145,0.013,0.217c0,2.438-2.01,4.416-4.499,4.439l-17.819,0.965l-0.446-16.973
		C147.193,187.327,152.716,186.99,154.066,186.928z"/>
	<path fill="#FFFFFF" d="M145.644,208.604c0,0-0.001-0.001-0.001-0.003c0-0.005,0.001-0.007,0.001-0.015
		c0.004-0.023,0.002-0.051,0.008-0.075h0.008c0.043-0.266,0.259-0.472,0.533-0.485v-0.006h7.222v0.004
		c0.006,0,0.014-0.004,0.02-0.004c0.29,0,0.519,0.214,0.563,0.491h0.005c0.002,0.015,0.002,0.029,0.003,0.044
		c0.001,0.016,0.009,0.029,0.009,0.046c0,0.006-0.003,0.01-0.003,0.017c0.012,0.087,0.023,0.176,0.023,0.266
		c0,1.71-1.882,3.693-4.208,3.693c-2.324,0-4.21-1.983-4.21-3.693C145.619,208.788,145.631,208.698,145.644,208.604z"/>
	<path fill="#193442" d="M127.955,489.577c0-0.459,0.22-0.86,0.549-1.128l0.003-0.007l0.022-0.015
		c0.103-0.074,0.208-0.139,0.325-0.187l7.874-4.576l12.339,0.042l0.089,7.186c0.003,0.038,0.012,0.07,0.012,0.105
		c0,0.598-0.484,1.082-1.082,1.082l-17.673-0.021c-0.063,0.014-0.128,0.021-0.195,0.021c-0.289,0-0.552-0.115-0.746-0.301h-0.005
		l-1.073-1.17C128.124,490.346,127.955,489.984,127.955,489.577z"/>
	<path fill="#193442" d="M169.417,473.082l4.109,8.803l0,0c0.47,0.914,0.742,1.947,0.742,3.045c0,3.672-2.979,6.649-6.651,6.649
		c-2.782,0-5.163-1.711-6.155-4.135L157.086,479L169.417,473.082z"/>
	<polygon fill="#D62537" points="135.11,251.739 184.951,273.212 190.558,250.617 193.603,280.424 187.354,290.681 	"/>
	<polygon fill="#D62537" points="188.263,307.606 192.563,293.103 134.897,259.431 	"/>
	<polygon fill="#D62537" points="131.774,277.701 132.949,257.988 129.341,275.699 	"/>
	<path fill="#EDBF98" d="M119.086,252.807c0-3.422,2.774-6.196,6.198-6.196c0.739,0,1.446,0.139,2.104,0.374h0.006
		c0,0,4.192,1.443,9.749,5.131c5.661,2.989,56.143,27.614,56.143,27.614s1.015,0.428,4.434-0.32
		c3.418-0.747,11.005-1.869,11.005-1.869l2.475,13.196c0.363,1.094,0.569,2.257,0.569,3.47c0,6.05-4.903,10.952-10.95,10.952
		c-2.2,0-4.241-0.653-5.956-1.771l0.024,0.061l-60.041-42.254c0,0-1.497-1.176-4.755-1.334c-2.148-0.206-4.406-0.457-6.061-0.983
		C121.209,258.295,119.086,255.798,119.086,252.807z"/>
	<polygon fill="#D8A782" points="119.086,273.801 126.35,279.248 119.821,272.171 	"/>
</g>
</svg>
