<?xml version="1.0" encoding="utf-8"?>
<!-- Generator: Adobe Illustrator 13.0.0, SVG Export Plug-In . SVG Version: 6.00 Build 14948)  -->
<!DOCTYPE svg PUBLIC "-//W3C//DTD SVG 1.1//EN" "http://www.w3.org/Graphics/SVG/1.1/DTD/svg11.dtd">
<svg version="1.1" id="Layer_1" xmlns="http://www.w3.org/2000/svg" xmlns:xlink="http://www.w3.org/1999/xlink" x="0px" y="0px"
	 width="325.109px" height="492.16px" viewBox="0 0 325.109 492.16" enable-background="new 0 0 325.109 492.16"
	 xml:space="preserve">
<rect x="0.054" y="0.08" opacity="0" fill="#FFFFFF" width="325" height="492"/>
<g>
	<path fill="#38F99C" d="M75.43,315.173c-0.184-20.659-16.982-37.35-37.684-37.35c-20.701,0-37.499,16.69-37.683,37.35H0.055v41.276
		h0.023c0.472,20.406,17.147,36.807,37.669,36.807s37.201-16.4,37.671-36.807h0.023v-41.276H75.43z"/>
	<path opacity="0.2" fill="#007C6D" enable-background="new    " d="M50.507,301.185c0,1.953-1.584,3.533-3.532,3.533l0,0
		c-1.951,0-3.535-1.58-3.535-3.533v-9.425c0-1.949,1.583-3.532,3.535-3.532l0,0c1.948,0,3.532,1.583,3.532,3.532V301.185z"/>
	<path opacity="0.2" fill="#007C6D" enable-background="new    " d="M15.268,325.014c0,1.991-1.614,3.608-3.606,3.608l0,0
		c-1.994,0-3.608-1.617-3.608-3.608v-4.42c0-1.989,1.615-3.604,3.608-3.604l0,0c1.992,0,3.606,1.615,3.606,3.604V325.014z"/>
	<path opacity="0.2" fill="#007C6D" enable-background="new    " d="M60.371,336.692c0,2.236-1.813,4.051-4.05,4.051l0,0
		c-2.235,0-4.049-1.813-4.049-4.051V325.65c0-2.234,1.813-4.049,4.049-4.049l0,0c2.236,0,4.05,1.813,4.05,4.049V336.692z"/>
	<path opacity="0.2" fill="#007C6D" enable-background="new    " d="M65.084,373.086c0,1.463-1.188,2.649-2.651,2.649l0,0
		c-1.462,0-2.649-1.188-2.649-2.649v-7.805c0-1.464,1.188-2.647,2.649-2.647l0,0c1.465,0,2.651,1.184,2.651,2.647V373.086z"/>
	<path opacity="0.2" fill="#007C6D" enable-background="new    " d="M20.322,367.81c0,1.75-1.417,3.167-3.165,3.167l0,0
		c-1.749,0-3.165-1.417-3.165-3.167v-9.718c0-1.747,1.417-3.163,3.165-3.163l0,0c1.748,0,3.165,1.416,3.165,3.163V367.81z"/>
	<path fill="#9B4438" d="M39.041,344.323c0.806,0.808,0.807,2.11,0,2.916l0,0c-0.806,0.805-2.108,0.805-2.915,0l-11.451-11.452
		c-0.806-0.806-0.807-2.109,0-2.914l0,0c0.804-0.808,2.108-0.808,2.915,0L39.041,344.323z"/>
	<path fill="#9B4438" d="M37.004,317.352c0.438,0.441,0.438,1.15,0,1.592l0,0c-0.439,0.44-1.152,0.44-1.592,0l-6.248-6.246
		c-0.439-0.441-0.44-1.152,0-1.593l0,0c0.438-0.438,1.151-0.438,1.59,0L37.004,317.352z"/>
	<path fill="#9B4438" d="M56.906,353.436c-0.804-0.807-2.11-0.805-2.914,0l-17.27,17.269c-0.805,0.805-0.805,2.109,0,2.915
		c0.806,0.807,2.11,0.805,2.916,0l5.811-5.812c0.001-0.002,0.004-0.002,0.004-0.003l11.453-11.45
		C57.71,355.547,57.71,354.242,56.906,353.436z"/>
	<path fill="#9B4438" d="M47.946,320.481c-0.449-0.45-1.18-0.45-1.631,0l-9.661,9.661c-0.449,0.452-0.449,1.181,0,1.633
		c0.451,0.449,1.18,0.449,1.632,0l3.253-3.254c0-0.002,0-0.002,0-0.002l6.408-6.408C48.398,321.663,48.398,320.933,47.946,320.481z"
		/>
	<path fill="#9B4438" d="M37.599,308.889c-1.138,0-2.062,0.925-2.062,2.063V458.19c0,1.138,0.925,2.063,2.062,2.063
		c1.14,0,2.063-0.925,2.063-2.063V310.952C39.661,309.813,38.738,308.889,37.599,308.889z"/>
</g>
</svg>
