<?xml version="1.0" encoding="utf-8"?>
<!-- Generator: Adobe Illustrator 13.0.0, SVG Export Plug-In . SVG Version: 6.00 Build 14948)  -->
<!DOCTYPE svg PUBLIC "-//W3C//DTD SVG 1.1//EN" "http://www.w3.org/Graphics/SVG/1.1/DTD/svg11.dtd">
<svg version="1.1" id="Layer_1" xmlns="http://www.w3.org/2000/svg" xmlns:xlink="http://www.w3.org/1999/xlink" x="0px" y="0px"
	 width="145px" height="43px" viewBox="0 0 145 43" enable-background="new 0 0 145 43" xml:space="preserve">
<g>
	<path fill="#A6A6A6" d="M139.918,43H5.083C2.274,43,0,40.725,0,37.915V5.086C0,2.275,2.274,0,5.083,0h134.835
		C142.727,0,145,2.275,145,5.086v32.829C145,40.725,142.727,43,139.918,43z"/>
	<path d="M144.049,37.915c0,2.276-1.833,4.11-4.107,4.11H5.106c-2.274,0-4.13-1.834-4.13-4.11V5.086c0-2.275,1.856-4.133,4.13-4.133
		h134.835c2.274,0,4.131,1.834,4.131,4.133L144.049,37.915z"/>
	<path opacity="0.05" fill="#FFFFFF" d="M139.918,0H67.697l28.289,43h43.932c2.809,0,5.082-2.275,5.082-5.085V5.086
		C145,2.275,142.727,0,139.918,0z"/>
	<path fill="#FFFFFF" d="M32.375,21.268c-0.023-3.458,2.831-5.154,2.971-5.224c-1.625-2.369-4.132-2.692-5.036-2.716
		c-2.111-0.233-4.154,1.276-5.245,1.276s-2.761-1.253-4.549-1.207c-2.297,0.046-4.456,1.37-5.64,3.437
		c-2.437,4.226-0.626,10.424,1.717,13.814c1.161,1.672,2.53,3.53,4.317,3.461c1.741-0.071,2.39-1.115,4.502-1.115
		c2.088,0,2.692,1.115,4.526,1.066c1.879-0.022,3.063-1.671,4.177-3.366c1.345-1.902,1.879-3.807,1.902-3.899
		C36.018,26.795,32.421,25.424,32.375,21.268z M28.94,11.075c0.929-1.183,1.579-2.763,1.393-4.389
		c-1.37,0.07-3.064,0.953-4.039,2.09c-0.858,1.022-1.648,2.671-1.438,4.226C26.387,13.119,27.965,12.236,28.94,11.075z"/>
	<path fill="#FFFFFF" d="M57.671,33.876h-2.438l-1.346-4.202h-4.641l-1.277,4.202h-2.367l4.595-14.302h2.854L57.671,33.876z
		 M53.494,27.908l-1.207-3.737c-0.14-0.372-0.372-1.278-0.72-2.694h-0.046c-0.139,0.605-0.371,1.51-0.673,2.694l-1.184,3.737H53.494
		z M69.483,28.582c0,1.765-0.486,3.136-1.438,4.156c-0.859,0.905-1.903,1.371-3.18,1.371c-1.369,0-2.344-0.489-2.947-1.465v5.41
		h-2.275V26.933c0-1.092-0.022-2.229-0.094-3.389h2.02l0.138,1.624h0.047c0.766-1.229,1.927-1.857,3.481-1.857
		c1.207,0,2.228,0.488,3.041,1.441C69.089,25.749,69.483,27.026,69.483,28.582L69.483,28.582z M67.162,28.674
		c0-0.997-0.231-1.835-0.673-2.482c-0.487-0.675-1.16-1.023-1.995-1.023c-0.558,0-1.068,0.186-1.532,0.558s-0.766,0.86-0.905,1.484
		c-0.069,0.234-0.093,0.467-0.115,0.698v1.718c0,0.743,0.231,1.395,0.695,1.905c0.464,0.51,1.067,0.765,1.788,0.765
		c0.858,0,1.531-0.323,2.018-0.997C66.931,30.648,67.162,29.766,67.162,28.674L67.162,28.674z M81.366,28.582
		c0,1.765-0.488,3.136-1.438,4.156c-0.859,0.905-1.904,1.371-3.18,1.371c-1.37,0-2.345-0.489-2.947-1.465v5.41h-2.298V26.933
		c0-1.092-0.023-2.229-0.093-3.389h2.02l0.14,1.624h0.046c0.766-1.229,1.927-1.857,3.481-1.857c1.207,0,2.228,0.488,3.04,1.441
		C80.948,25.749,81.366,27.026,81.366,28.582z M79.021,28.674c0-0.997-0.232-1.835-0.674-2.482c-0.486-0.675-1.16-1.023-1.994-1.023
		c-0.558,0-1.068,0.186-1.533,0.558c-0.464,0.372-0.766,0.86-0.904,1.484c-0.069,0.28-0.115,0.514-0.115,0.698v1.718
		c0,0.743,0.231,1.395,0.695,1.905c0.464,0.51,1.068,0.765,1.787,0.765c0.858,0,1.531-0.323,2.02-0.997
		C78.789,30.648,79.021,29.766,79.021,28.674z M94.617,29.858c0,1.208-0.417,2.206-1.277,2.973
		c-0.928,0.836-2.227,1.255-3.897,1.255c-1.532,0-2.762-0.304-3.714-0.884l0.534-1.903c0.997,0.604,2.11,0.883,3.318,0.883
		c0.859,0,1.532-0.186,2.02-0.581c0.486-0.395,0.72-0.906,0.72-1.556c0-0.581-0.21-1.068-0.604-1.463
		c-0.395-0.395-1.045-0.767-1.973-1.113c-2.508-0.93-3.76-2.301-3.76-4.11c0-1.184,0.44-2.137,1.322-2.881
		c0.882-0.742,2.065-1.112,3.504-1.112c1.3,0,2.391,0.231,3.25,0.672l-0.581,1.857c-0.812-0.441-1.717-0.65-2.737-0.65
		c-0.813,0-1.439,0.209-1.903,0.604c-0.372,0.351-0.58,0.791-0.58,1.3c0,0.559,0.208,1.047,0.649,1.395
		c0.371,0.35,1.067,0.696,2.088,1.113c1.23,0.489,2.136,1.069,2.715,1.742C94.338,28.047,94.617,28.861,94.617,29.858z
		 M102.206,25.284h-2.53v5.017c0,1.277,0.441,1.903,1.347,1.903c0.418,0,0.742-0.022,1.021-0.117l0.069,1.742
		c-0.44,0.163-1.045,0.257-1.787,0.257c-0.905,0-1.602-0.28-2.112-0.837c-0.511-0.559-0.766-1.485-0.766-2.787v-5.2h-1.509v-1.718
		h1.509v-1.881l2.251-0.674v2.577h2.53L102.206,25.284L102.206,25.284z M113.577,28.628c0,1.579-0.464,2.88-1.368,3.901
		c-0.952,1.044-2.205,1.58-3.783,1.58c-1.51,0-2.716-0.513-3.621-1.511c-0.904-0.998-1.346-2.274-1.346-3.807
		c0-1.604,0.465-2.904,1.393-3.924c0.928-1.022,2.182-1.533,3.736-1.533c1.51,0,2.738,0.511,3.644,1.509
		C113.137,25.818,113.577,27.097,113.577,28.628L113.577,28.628z M111.211,28.674c0-0.95-0.209-1.763-0.604-2.437
		c-0.487-0.813-1.16-1.231-2.065-1.231c-0.928,0-1.625,0.418-2.111,1.231c-0.418,0.674-0.604,1.51-0.604,2.484
		c0,0.952,0.209,1.764,0.604,2.438c0.486,0.813,1.184,1.23,2.089,1.23c0.881,0,1.555-0.417,2.066-1.254
		C111.002,30.439,111.211,29.626,111.211,28.674L111.211,28.674z M121.027,25.563c-0.232-0.046-0.487-0.067-0.72-0.067
		c-0.813,0-1.438,0.3-1.856,0.904c-0.371,0.533-0.58,1.208-0.58,2.043v5.411h-2.298v-7.059c0-1.092-0.022-2.16-0.069-3.251h1.995
		l0.094,1.973h0.069c0.232-0.673,0.626-1.23,1.137-1.625c0.487-0.348,1.068-0.557,1.648-0.557c0.209,0,0.394,0.023,0.58,0.046
		V25.563z M131.285,28.233c0,0.349-0.023,0.697-0.093,1.046h-6.87c0.023,1.021,0.348,1.81,0.998,2.345
		c0.58,0.487,1.322,0.72,2.251,0.72c1.021,0,1.949-0.162,2.786-0.487l0.347,1.578c-0.975,0.419-2.135,0.626-3.457,0.626
		c-1.602,0-2.854-0.464-3.761-1.416c-0.904-0.951-1.369-2.205-1.369-3.783c0-1.557,0.418-2.857,1.276-3.88
		c0.883-1.113,2.089-1.646,3.598-1.646c1.486,0,2.622,0.557,3.366,1.646C130.983,25.864,131.285,26.933,131.285,28.233
		L131.285,28.233z M129.103,27.629c0.024-0.672-0.139-1.275-0.44-1.765c-0.394-0.649-0.998-0.951-1.834-0.951
		c-0.742,0-1.368,0.302-1.833,0.928c-0.37,0.489-0.603,1.092-0.673,1.788H129.103L129.103,27.629z M48.597,14.512
		c-0.627,0-1.184-0.022-1.648-0.093V7.5c0.65-0.092,1.3-0.141,1.95-0.141c2.623,0,3.83,1.301,3.83,3.413
		C52.728,13.188,51.288,14.512,48.597,14.512z M48.968,8.242c-0.349,0-0.649,0.024-0.904,0.07v5.248
		c0.139,0.022,0.395,0.022,0.766,0.022c1.717,0,2.691-0.975,2.691-2.811C51.521,9.148,50.639,8.242,48.968,8.242z M56.488,14.559
		c-1.486,0-2.437-1.115-2.437-2.602c0-1.556,0.974-2.67,2.529-2.67c1.462,0,2.438,1.046,2.438,2.602
		C59.018,13.443,57.995,14.559,56.488,14.559z M56.534,10.102c-0.813,0-1.347,0.764-1.347,1.833c0,1.045,0.534,1.81,1.323,1.81
		s1.323-0.812,1.323-1.833C57.857,10.865,57.322,10.102,56.534,10.102L56.534,10.102z M67.464,9.382l-1.578,5.061h-1.044
		l-0.65-2.206c-0.162-0.534-0.3-1.092-0.417-1.648h-0.022c-0.094,0.557-0.233,1.114-0.418,1.648l-0.696,2.206h-1.044l-1.486-5.061
		h1.161l0.58,2.414c0.14,0.579,0.256,1.114,0.349,1.624h0.024c0.091-0.418,0.208-0.951,0.417-1.624l0.72-2.414h0.929l0.697,2.367
		c0.161,0.58,0.301,1.139,0.417,1.671h0.024c0.069-0.51,0.185-1.068,0.348-1.671l0.626-2.367H67.464z M73.289,14.442h-1.113v-2.903
		c0-0.904-0.349-1.346-1.021-1.346s-1.138,0.579-1.138,1.23v3.019h-1.137v-3.623c0-0.439,0-0.927-0.046-1.438h0.998l0.046,0.789
		h0.023c0.302-0.535,0.929-0.884,1.601-0.884c1.068,0,1.763,0.814,1.763,2.137L73.289,14.442L73.289,14.442z M76.398,14.442h-1.136
		V7.035h1.136V14.442z M80.507,14.559c-1.485,0-2.437-1.115-2.437-2.602c0-1.556,0.975-2.67,2.53-2.67
		c1.462,0,2.437,1.046,2.437,2.602C83.037,13.443,82.016,14.559,80.507,14.559z M80.554,10.102c-0.812,0-1.347,0.764-1.347,1.833
		c0,1.045,0.535,1.81,1.324,1.81c0.788,0,1.322-0.812,1.322-1.833C81.854,10.865,81.343,10.102,80.554,10.102z M87.469,14.442
		l-0.093-0.581h-0.022c-0.349,0.465-0.836,0.697-1.486,0.697c-0.904,0-1.555-0.628-1.555-1.487c0-1.253,1.092-1.903,2.971-1.903
		v-0.093c0-0.674-0.348-0.998-1.044-0.998c-0.511,0-0.928,0.116-1.323,0.372l-0.231-0.744c0.464-0.302,1.044-0.441,1.74-0.441
		c1.322,0,1.996,0.697,1.996,2.091v1.856c0,0.511,0.022,0.906,0.069,1.208L87.469,14.442z M87.307,11.911
		c-1.253,0-1.88,0.302-1.88,1.021c0,0.533,0.325,0.789,0.767,0.789c0.58,0,1.113-0.441,1.113-1.02V11.911L87.307,11.911z
		 M93.875,14.442l-0.048-0.813h-0.021c-0.326,0.604-0.859,0.93-1.626,0.93c-1.229,0-2.135-1.069-2.135-2.578
		c0-1.579,0.929-2.693,2.229-2.693c0.673,0,1.16,0.232,1.438,0.697h0.024V7.035h1.137v6.036c0,0.489,0.023,0.953,0.047,1.371H93.875
		z M93.711,11.47c0-0.719-0.463-1.323-1.182-1.323c-0.837,0-1.347,0.742-1.347,1.788c0,1.022,0.534,1.717,1.323,1.717
		c0.719,0,1.205-0.626,1.205-1.345V11.47L93.711,11.47z M101.997,14.559c-1.485,0-2.437-1.115-2.437-2.602
		c0-1.556,0.975-2.67,2.529-2.67c1.461,0,2.437,1.046,2.437,2.602C104.526,13.443,103.506,14.559,101.997,14.559z M102.044,10.102
		c-0.813,0-1.323,0.764-1.323,1.833c0,1.045,0.533,1.81,1.323,1.81c0.788,0,1.322-0.812,1.322-1.833
		C103.343,10.865,102.832,10.102,102.044,10.102z M110.585,14.442h-1.139v-2.903c0-0.904-0.348-1.346-1.021-1.346
		s-1.115,0.579-1.115,1.23v3.019h-1.137v-3.623c0-0.439,0-0.927-0.047-1.438h0.999l0.047,0.789h0.023
		c0.301-0.535,0.927-0.884,1.601-0.884c1.066,0,1.764,0.814,1.764,2.137v3.019H110.585z M118.15,10.215h-1.23v2.464
		c0,0.626,0.209,0.927,0.649,0.927c0.209,0,0.37-0.022,0.511-0.045l0.022,0.858c-0.208,0.093-0.51,0.116-0.882,0.116
		c-0.882,0-1.415-0.487-1.415-1.765v-2.556h-0.743V9.382h0.743V8.451l1.114-0.324v1.255h1.23V10.215z M124.113,14.442H123v-2.879
		c0-0.906-0.349-1.37-1.021-1.37c-0.58,0-1.138,0.395-1.138,1.208v3.064h-1.113V7.035h1.113v3.042h0.023
		c0.349-0.558,0.858-0.836,1.531-0.836c1.068,0,1.718,0.836,1.718,2.16V14.442L124.113,14.442z M130.218,12.189h-3.39
		c0.023,0.952,0.651,1.509,1.603,1.509c0.51,0,0.952-0.093,1.369-0.232l0.186,0.791c-0.487,0.209-1.045,0.302-1.694,0.302
		c-1.579,0-2.529-0.998-2.529-2.554s0.95-2.718,2.391-2.718c1.299,0,2.111,0.954,2.111,2.415
		C130.264,11.842,130.264,12.005,130.218,12.189z M129.196,11.377c0-0.789-0.395-1.345-1.114-1.345c-0.65,0-1.16,0.556-1.23,1.345
		H129.196z"/>
</g>
</svg>
