<?xml version="1.0" encoding="utf-8"?>
<!-- Generator: Adobe Illustrator 13.0.0, SVG Export Plug-In . SVG Version: 6.00 Build 14948)  -->
<!DOCTYPE svg PUBLIC "-//W3C//DTD SVG 1.1//EN" "http://www.w3.org/Graphics/SVG/1.1/DTD/svg11.dtd">
<svg version="1.1" id="Layer_1" xmlns="http://www.w3.org/2000/svg" xmlns:xlink="http://www.w3.org/1999/xlink" x="0px" y="0px"
	 width="80px" height="160px" viewBox="0 0 80 160" enable-background="new 0 0 80 160" xml:space="preserve">
<g>
	<ellipse fill="#06004E" cx="1.201" cy="1.21" rx="1.201" ry="1.213"/>
	<ellipse fill="#06004E" cx="12.286" cy="1.21" rx="1.201" ry="1.213"/>
	<ellipse fill="#06004E" cx="23.372" cy="1.21" rx="1.201" ry="1.213"/>
	<ellipse fill="#06004E" cx="34.457" cy="1.21" rx="1.201" ry="1.213"/>
	<ellipse fill="#06004E" cx="45.543" cy="1.21" rx="1.201" ry="1.213"/>
	<ellipse fill="#06004E" cx="56.628" cy="1.21" rx="1.201" ry="1.213"/>
	<ellipse fill="#06004E" cx="67.714" cy="1.21" rx="1.201" ry="1.213"/>
	<ellipse fill="#06004E" cx="78.799" cy="1.21" rx="1.201" ry="1.213"/>
	<ellipse fill="#06004E" cx="1.201" cy="15.537" rx="1.201" ry="1.21"/>
	<ellipse fill="#06004E" cx="12.286" cy="15.537" rx="1.201" ry="1.21"/>
	<ellipse fill="#06004E" cx="23.372" cy="15.537" rx="1.201" ry="1.21"/>
	<ellipse fill="#06004E" cx="34.457" cy="15.537" rx="1.201" ry="1.21"/>
	<ellipse fill="#06004E" cx="45.543" cy="15.537" rx="1.201" ry="1.21"/>
	<ellipse fill="#06004E" cx="56.628" cy="15.537" rx="1.201" ry="1.21"/>
	<ellipse fill="#06004E" cx="67.714" cy="15.537" rx="1.201" ry="1.21"/>
	<ellipse fill="#06004E" cx="78.799" cy="15.537" rx="1.201" ry="1.21"/>
	<ellipse fill="#06004E" cx="1.201" cy="29.861" rx="1.201" ry="1.212"/>
	<ellipse fill="#06004E" cx="12.286" cy="29.861" rx="1.201" ry="1.212"/>
	<ellipse fill="#06004E" cx="23.372" cy="29.861" rx="1.201" ry="1.212"/>
	<ellipse fill="#06004E" cx="34.457" cy="29.861" rx="1.201" ry="1.212"/>
	<ellipse fill="#06004E" cx="45.543" cy="29.861" rx="1.201" ry="1.212"/>
	<ellipse fill="#06004E" cx="56.628" cy="29.861" rx="1.201" ry="1.212"/>
	<ellipse fill="#06004E" cx="67.714" cy="29.861" rx="1.201" ry="1.212"/>
	<ellipse fill="#06004E" cx="78.799" cy="29.861" rx="1.201" ry="1.212"/>
	<ellipse fill="#06004E" cx="1.201" cy="44.188" rx="1.201" ry="1.21"/>
	<ellipse fill="#06004E" cx="12.286" cy="44.188" rx="1.201" ry="1.21"/>
	<ellipse fill="#06004E" cx="23.372" cy="44.188" rx="1.201" ry="1.21"/>
	<ellipse fill="#06004E" cx="34.457" cy="44.188" rx="1.201" ry="1.21"/>
	<ellipse fill="#06004E" cx="45.543" cy="44.188" rx="1.201" ry="1.21"/>
	<ellipse fill="#06004E" cx="56.628" cy="44.188" rx="1.201" ry="1.21"/>
	<ellipse fill="#06004E" cx="67.714" cy="44.188" rx="1.201" ry="1.21"/>
	<ellipse fill="#06004E" cx="78.799" cy="44.188" rx="1.201" ry="1.21"/>
	<ellipse fill="#06004E" cx="1.201" cy="58.512" rx="1.201" ry="1.212"/>
	<ellipse fill="#06004E" cx="12.286" cy="58.512" rx="1.201" ry="1.212"/>
	<ellipse fill="#06004E" cx="23.372" cy="58.512" rx="1.201" ry="1.212"/>
	<ellipse fill="#06004E" cx="34.457" cy="58.512" rx="1.201" ry="1.212"/>
	<ellipse fill="#06004E" cx="45.543" cy="58.512" rx="1.201" ry="1.212"/>
	<ellipse fill="#06004E" cx="56.628" cy="58.512" rx="1.201" ry="1.212"/>
	<ellipse fill="#06004E" cx="67.714" cy="58.512" rx="1.201" ry="1.212"/>
	<ellipse fill="#06004E" cx="78.799" cy="58.512" rx="1.201" ry="1.212"/>
	<ellipse fill="#06004E" cx="1.201" cy="72.838" rx="1.201" ry="1.21"/>
	<ellipse fill="#06004E" cx="12.286" cy="72.838" rx="1.201" ry="1.21"/>
	<ellipse fill="#06004E" cx="23.372" cy="72.838" rx="1.201" ry="1.21"/>
	<ellipse fill="#06004E" cx="34.457" cy="72.838" rx="1.201" ry="1.21"/>
	<ellipse fill="#06004E" cx="45.543" cy="72.838" rx="1.201" ry="1.21"/>
	<ellipse fill="#06004E" cx="56.628" cy="72.838" rx="1.201" ry="1.21"/>
	<ellipse fill="#06004E" cx="67.714" cy="72.838" rx="1.201" ry="1.21"/>
	<ellipse fill="#06004E" cx="78.799" cy="72.838" rx="1.201" ry="1.21"/>
	<ellipse fill="#06004E" cx="1.201" cy="87.162" rx="1.201" ry="1.212"/>
	<ellipse fill="#06004E" cx="12.286" cy="87.162" rx="1.201" ry="1.212"/>
	<ellipse fill="#06004E" cx="23.372" cy="87.162" rx="1.201" ry="1.212"/>
	<ellipse fill="#06004E" cx="34.457" cy="87.162" rx="1.201" ry="1.212"/>
	<ellipse fill="#06004E" cx="45.543" cy="87.162" rx="1.201" ry="1.212"/>
	<ellipse fill="#06004E" cx="56.628" cy="87.162" rx="1.201" ry="1.212"/>
	<ellipse fill="#06004E" cx="67.714" cy="87.162" rx="1.201" ry="1.212"/>
	<ellipse fill="#06004E" cx="78.799" cy="87.162" rx="1.201" ry="1.212"/>
	<ellipse fill="#06004E" cx="1.201" cy="101.488" rx="1.201" ry="1.211"/>
	<ellipse fill="#06004E" cx="12.286" cy="101.488" rx="1.201" ry="1.211"/>
	<ellipse fill="#06004E" cx="23.372" cy="101.488" rx="1.201" ry="1.211"/>
	<ellipse fill="#06004E" cx="34.457" cy="101.488" rx="1.201" ry="1.211"/>
	<ellipse fill="#06004E" cx="45.543" cy="101.488" rx="1.201" ry="1.211"/>
	<ellipse fill="#06004E" cx="56.628" cy="101.488" rx="1.201" ry="1.211"/>
	<ellipse fill="#06004E" cx="67.714" cy="101.488" rx="1.201" ry="1.211"/>
	<ellipse fill="#06004E" cx="78.799" cy="101.488" rx="1.201" ry="1.211"/>
	<ellipse fill="#06004E" cx="1.201" cy="115.813" rx="1.201" ry="1.213"/>
	<ellipse fill="#06004E" cx="12.286" cy="115.813" rx="1.201" ry="1.213"/>
	<ellipse fill="#06004E" cx="23.372" cy="115.813" rx="1.201" ry="1.213"/>
	<ellipse fill="#06004E" cx="34.457" cy="115.813" rx="1.201" ry="1.213"/>
	<ellipse fill="#06004E" cx="45.543" cy="115.813" rx="1.201" ry="1.213"/>
	<ellipse fill="#06004E" cx="56.628" cy="115.813" rx="1.201" ry="1.213"/>
	<ellipse fill="#06004E" cx="67.714" cy="115.813" rx="1.201" ry="1.213"/>
	<ellipse fill="#06004E" cx="78.799" cy="115.813" rx="1.201" ry="1.213"/>
	<ellipse fill="#06004E" cx="1.201" cy="130.139" rx="1.201" ry="1.211"/>
	<ellipse fill="#06004E" cx="12.286" cy="130.139" rx="1.201" ry="1.211"/>
	<ellipse fill="#06004E" cx="23.372" cy="130.139" rx="1.201" ry="1.211"/>
	<ellipse fill="#06004E" cx="34.457" cy="130.139" rx="1.201" ry="1.211"/>
	<ellipse fill="#06004E" cx="45.543" cy="130.139" rx="1.201" ry="1.211"/>
	<ellipse fill="#06004E" cx="56.628" cy="130.139" rx="1.201" ry="1.211"/>
	<ellipse fill="#06004E" cx="67.714" cy="130.139" rx="1.201" ry="1.211"/>
	<ellipse fill="#06004E" cx="78.799" cy="130.139" rx="1.201" ry="1.211"/>
	<ellipse fill="#06004E" cx="1.201" cy="144.463" rx="1.201" ry="1.213"/>
	<ellipse fill="#06004E" cx="12.286" cy="144.463" rx="1.201" ry="1.213"/>
	<ellipse fill="#06004E" cx="23.372" cy="144.463" rx="1.201" ry="1.213"/>
	<ellipse fill="#06004E" cx="34.457" cy="144.463" rx="1.201" ry="1.213"/>
	<ellipse fill="#06004E" cx="45.543" cy="144.463" rx="1.201" ry="1.213"/>
	<ellipse fill="#06004E" cx="56.628" cy="144.463" rx="1.201" ry="1.213"/>
	<ellipse fill="#06004E" cx="67.714" cy="144.463" rx="1.201" ry="1.213"/>
	<ellipse fill="#06004E" cx="78.799" cy="144.463" rx="1.201" ry="1.213"/>
	<ellipse fill="#06004E" cx="1.201" cy="158.789" rx="1.201" ry="1.211"/>
	<ellipse fill="#06004E" cx="12.286" cy="158.789" rx="1.201" ry="1.211"/>
	<ellipse fill="#06004E" cx="23.372" cy="158.789" rx="1.201" ry="1.211"/>
	<ellipse fill="#06004E" cx="34.457" cy="158.789" rx="1.201" ry="1.211"/>
	<ellipse fill="#06004E" cx="45.543" cy="158.789" rx="1.201" ry="1.211"/>
	<ellipse fill="#06004E" cx="56.628" cy="158.789" rx="1.201" ry="1.211"/>
	<ellipse fill="#06004E" cx="67.714" cy="158.789" rx="1.201" ry="1.211"/>
	<ellipse fill="#06004E" cx="78.799" cy="158.789" rx="1.201" ry="1.211"/>
</g>
</svg>
