<?xml version="1.0" encoding="utf-8"?>
<!-- Generator: Adobe Illustrator 13.0.0, SVG Export Plug-In . SVG Version: 6.00 Build 14948)  -->
<!DOCTYPE svg PUBLIC "-//W3C//DTD SVG 1.1//EN" "http://www.w3.org/Graphics/SVG/1.1/DTD/svg11.dtd">
<svg version="1.1" id="Layer_1" xmlns="http://www.w3.org/2000/svg" xmlns:xlink="http://www.w3.org/1999/xlink" x="0px" y="0px"
	 width="90px" height="45.001px" viewBox="-0.683 1.558 90 45.001" enable-background="new -0.683 1.558 90 45.001"
	 xml:space="preserve">
<g>
	<g>
		<path fill="#06004E" d="M33.539,11.524c0,0.678-0.268,1.427-0.803,2.252c-0.535,0.826-1.223,1.658-2.062,2.496
			c-0.839,0.84-1.774,1.657-2.803,2.454c-1.03,0.796-2.045,1.512-3.045,2.147c-0.832,0.521-1.633,0.997-2.401,1.427
			c-0.768,0.43-1.488,0.835-2.158,1.215c-0.669,0.381-1.279,0.745-1.83,1.091c-0.549,0.345-1.029,0.694-1.438,1.045
			c1.016,0.186,1.919,0.364,2.708,0.541c0.79,0.175,1.417,0.384,1.883,0.624c0.339,0.239,0.684,0.595,1.036,1.066
			c0.351,0.475,0.669,0.956,0.952,1.45c0.281,0.494,0.511,0.941,0.687,1.344c0.177,0.399,0.265,0.644,0.265,0.729
			c0,0.622-0.158,1.275-0.476,1.966c-0.317,0.691-0.754,1.379-1.313,2.063c-0.556,0.685-1.22,1.342-1.988,1.978
			c-0.768,0.635-1.607,1.208-2.517,1.722c-0.911,0.517-1.873,0.953-2.888,1.313c-1.014,0.359-2.044,0.596-3.087,0.709
			c-0.464-0.382-0.917-0.785-1.354-1.217c-0.437-0.43-0.832-0.832-1.184-1.205c-0.353-0.373-0.649-0.697-0.888-0.974
			c-0.241-0.274-0.389-0.446-0.445-0.518c-0.508,0.79-1.023,1.509-1.543,2.159c-0.523,0.647-1.041,1.193-1.556,1.638
			c-0.514,0.442-1.029,0.782-1.545,1.015c-0.514,0.232-1.025,0.335-1.533,0.307c-0.211-0.014-0.43-0.095-0.657-0.242
			c-0.224-0.147-0.443-0.335-0.654-0.562c-0.212-0.226-0.413-0.472-0.603-0.741c-0.191-0.267-0.36-0.523-0.509-0.771
			c-0.148-0.246-0.264-0.472-0.348-0.677c-0.084-0.204-0.127-0.348-0.127-0.433c0-1.48,0.314-3.13,0.942-4.949
			c0.628-1.819,1.483-3.702,2.569-5.647c1.086-1.946,2.369-3.895,3.85-5.848c1.48-1.952,3.074-3.802,4.78-5.552
			c0.564-2.031,1.023-4.004,1.375-5.922c0.352-1.919,0.542-3.674,0.572-5.267c0.93,0.494,1.677,0.977,2.24,1.449
			c0.564,0.471,1.009,0.892,1.333,1.257c0.367,0.438,0.634,0.853,0.804,1.25c0.084,0.253,0.127,0.613,0.127,1.078
			c0,0.085-0.003,0.173-0.01,0.264c-0.007,0.091-0.019,0.187-0.032,0.285C19.84,9.922,21.805,8.8,23.757,7.96
			c1.954-0.839,3.825-1.259,5.616-1.259c0.225,0,0.486,0.085,0.782,0.254c0.296,0.168,0.597,0.395,0.9,0.676
			c0.302,0.283,0.606,0.598,0.909,0.942c0.303,0.346,0.573,0.699,0.804,1.057c0.234,0.361,0.42,0.707,0.561,1.038
			C33.469,10.999,33.539,11.286,33.539,11.524z M2.299,38.343c0.127,0,0.314-0.157,0.56-0.478c0.248-0.315,0.537-0.759,0.868-1.33
			s0.697-1.262,1.1-2.072c0.401-0.811,0.82-1.707,1.258-2.688c0.437-0.979,0.886-2.032,1.342-3.163
			c0.458-1.126,0.914-2.297,1.365-3.51c-0.833,1.057-1.615,2.125-2.348,3.205c-0.732,1.078-1.393,2.154-1.979,3.225
			c-0.583,1.071-1.085,2.134-1.501,3.184c-0.416,1.051-0.724,2.07-0.921,3.056c-0.042,0.199-0.031,0.343,0.033,0.434
			C2.14,38.298,2.214,38.343,2.299,38.343z M13.51,26.753c-0.748,1.916-1.549,3.775-2.402,5.572
			c-0.852,1.798-1.744,3.425-2.675,4.876c1.607-0.142,3.102-0.377,4.484-0.708c1.382-0.332,2.63-0.773,3.744-1.321
			c1.113-0.552,2.091-1.228,2.93-2.032c0.838-0.805,1.525-1.748,2.063-2.834c-0.284-0.155-0.589-0.296-0.92-0.423
			c-0.331-0.127-0.682-0.241-1.047-0.339c-0.367-0.099-0.737-0.186-1.11-0.264c-0.374-0.078-0.738-0.152-1.09-0.222
			c-0.819-0.143-1.663-0.255-2.539-0.34c-0.198-0.027-0.426-0.238-0.687-0.634C14,27.689,13.748,27.246,13.51,26.753z
			 M16.809,16.706c-0.24,0.875-0.504,1.787-0.793,2.739c-0.289,0.952-0.602,1.935-0.94,2.951c1.269-1.029,2.633-2.002,4.093-2.919
			c1.458-0.916,2.908-1.851,4.347-2.802c1.437-0.952,2.799-1.967,4.082-3.046c1.283-1.079,2.383-2.301,3.3-3.669
			c0.056-0.071,0.081-0.155,0.074-0.253c-0.008-0.1-0.04-0.194-0.096-0.286c-0.057-0.091-0.129-0.169-0.223-0.233
			c-0.091-0.063-0.201-0.096-0.326-0.096c-0.792,0-1.696,0.188-2.719,0.562c-1.022,0.374-2.119,0.896-3.289,1.565
			c-1.171,0.67-2.393,1.474-3.669,2.411C19.372,14.567,18.092,15.592,16.809,16.706z"/>
		<path fill="#06004E" d="M30.769,36.609c0,0.422,0.155,0.634,0.465,0.634c0.324,0,0.753-0.256,1.29-0.771
			c0.536-0.514,1.092-1.167,1.671-1.957c-0.028-0.156-0.045-0.291-0.052-0.413c-0.007-0.119-0.01-0.229-0.01-0.328
			c0-0.28,0.031-0.617,0.095-1.005c0.063-0.386,0.222-0.826,0.476-1.321c0.169-0.381,0.373-0.753,0.613-1.121
			c0.197-0.324,0.437-0.672,0.719-1.046c0.282-0.374,0.592-0.725,0.93-1.047l0.129-0.129c0.14,0.172,0.327,0.401,0.56,0.688
			c0.232,0.29,0.465,0.585,0.697,0.889c0.233,0.303,0.437,0.582,0.615,0.836c0.175,0.254,0.285,0.429,0.327,0.527
			c0,0.607-0.11,1.214-0.327,1.82c-0.22,0.606-0.513,1.204-0.879,1.798c0.846-0.057,1.632-0.271,2.359-0.646
			c0.726-0.374,1.482-0.983,2.272-1.829c0.127,0.127,0.294,0.299,0.498,0.519c0.205,0.219,0.371,0.404,0.497,0.56
			c-0.592,0.62-1.174,1.135-1.744,1.545c-0.572,0.408-1.142,0.731-1.714,0.974c-0.57,0.239-1.152,0.411-1.745,0.518
			c-0.592,0.106-1.198,0.158-1.819,0.158c-0.481,0.507-0.994,0.973-1.544,1.396c-0.55,0.424-1.11,0.79-1.681,1.101
			c-0.572,0.309-1.139,0.55-1.703,0.719c-0.565,0.168-1.1,0.254-1.609,0.254c-0.422,0-0.859-0.127-1.31-0.381
			c-0.452-0.254-0.861-0.567-1.228-0.942c-0.366-0.372-0.669-0.771-0.909-1.193c-0.24-0.425-0.36-0.796-0.36-1.123
			c0-1.07,0.145-2.134,0.435-3.192c0.289-1.057,0.739-2.049,1.354-2.972c0.612-0.924,1.396-1.738,2.347-2.442
			c0.954-0.705,2.084-1.242,3.395-1.607c0.043-0.028,0.116-0.05,0.224-0.063c0.104-0.016,0.191-0.021,0.264-0.021
			c0.196,0,0.406,0.073,0.625,0.222c0.218,0.147,0.423,0.314,0.612,0.498c0.191,0.183,0.35,0.363,0.477,0.538
			c0.126,0.177,0.19,0.294,0.19,0.349c-0.029,0.071-0.134,0.159-0.317,0.265c-0.184,0.105-0.431,0.285-0.74,0.54
			c-0.311,0.254-0.677,0.617-1.1,1.089c-0.423,0.473-0.889,1.097-1.396,1.872c-0.761,1.142-1.276,2.176-1.544,3.1
			C30.902,35.387,30.769,36.102,30.769,36.609z"/>
		<path fill="#06004E" d="M48.409,28.55c-0.169,0.452-0.338,0.91-0.507,1.375s-0.339,0.944-0.508,1.438
			c0.888-1.017,1.652-1.845,2.294-2.485s1.186-1.146,1.63-1.513c0.443-0.366,0.804-0.616,1.078-0.751
			c0.275-0.133,0.488-0.201,0.645-0.201c0.183,0,0.458,0.091,0.826,0.277c0.365,0.183,0.736,0.407,1.109,0.675
			c0.374,0.269,0.699,0.543,0.974,0.826c0.275,0.282,0.412,0.527,0.412,0.739c0,0.042-0.008,0.096-0.021,0.159
			c-0.015,0.063-0.035,0.145-0.063,0.243c-0.113,0.354-0.257,0.769-0.434,1.248c-0.176,0.479-0.363,0.977-0.56,1.491
			c-0.2,0.514-0.396,1.029-0.594,1.544c-0.198,0.514-0.375,0.998-0.528,1.447c-0.156,0.453-0.282,0.847-0.381,1.185
			c-0.1,0.34-0.149,0.587-0.149,0.74c0,0.086,0.045,0.128,0.13,0.128c0.153,0,0.387-0.092,0.696-0.275
			c0.31-0.183,0.666-0.422,1.067-0.719c0.403-0.296,0.821-0.62,1.26-0.974c0.436-0.352,0.855-0.7,1.258-1.047
			c0.401-0.344,0.764-0.658,1.089-0.941c0.324-0.279,0.572-0.492,0.741-0.634c0.141,0.128,0.294,0.289,0.465,0.487
			c0.17,0.197,0.33,0.38,0.485,0.549c-0.309,0.311-0.696,0.688-1.161,1.131c-0.466,0.445-0.971,0.899-1.513,1.365
			c-0.544,0.465-1.107,0.93-1.693,1.396c-0.586,0.466-1.151,0.882-1.702,1.248c-0.55,0.365-1.063,0.662-1.545,0.888
			c-0.48,0.227-0.881,0.339-1.205,0.339c-0.211,0-0.479-0.074-0.804-0.223s-0.638-0.332-0.94-0.549
			c-0.304-0.219-0.562-0.461-0.771-0.73c-0.213-0.268-0.317-0.529-0.317-0.783c0.127-0.578,0.299-1.232,0.517-1.966
			c0.22-0.733,0.456-1.484,0.709-2.253c0.254-0.768,0.519-1.53,0.794-2.284c0.274-0.755,0.54-1.449,0.792-2.083l-0.042,0.042
			c-0.268,0.323-0.652,0.752-1.152,1.279c-0.501,0.528-1.068,1.204-1.703,2.029c-0.634,0.826-1.304,1.82-2.008,2.983
			c-0.707,1.164-1.397,2.543-2.073,4.136c-0.084,0.196-0.163,0.352-0.234,0.464c-0.071,0.114-0.204,0.171-0.402,0.171
			c-0.24,0-0.512-0.069-0.814-0.203c-0.303-0.133-0.613-0.309-0.931-0.527c-0.315-0.22-0.634-0.462-0.951-0.729
			c-0.318-0.269-0.604-0.536-0.857-0.805c0-0.084,0.04-0.323,0.116-0.718c0.078-0.395,0.188-0.893,0.329-1.491
			c0.14-0.599,0.317-1.283,0.528-2.053c0.212-0.768,0.452-1.575,0.72-2.422c0.269-0.846,0.562-1.71,0.878-2.591
			c0.317-0.88,0.66-1.73,1.025-2.548c0.594,0.282,1.253,0.628,1.979,1.036C47.117,27.521,47.789,27.999,48.409,28.55z"/>
		<path fill="#06004E" d="M72.48,36.419c0,0.353,0.113,0.528,0.338,0.528c0.268,0,0.589-0.086,0.963-0.254
			c0.374-0.17,0.765-0.391,1.173-0.667c0.41-0.274,0.825-0.581,1.249-0.92c0.423-0.338,0.82-0.668,1.194-0.994
			c0.374-0.324,0.709-0.627,1.006-0.91c0.295-0.28,0.526-0.507,0.698-0.676c0.139,0.128,0.308,0.289,0.506,0.487
			c0.198,0.197,0.374,0.38,0.529,0.549c-0.367,0.367-0.783,0.775-1.249,1.227c-0.465,0.452-0.961,0.915-1.49,1.387
			c-0.527,0.473-1.078,0.931-1.65,1.374c-0.57,0.444-1.138,0.838-1.701,1.185c-0.564,0.345-1.116,0.624-1.65,0.836
			c-0.536,0.211-1.044,0.317-1.522,0.317c-0.255,0-0.565-0.117-0.932-0.35c-0.366-0.233-0.719-0.518-1.057-0.855
			c-0.339-0.34-0.625-0.695-0.856-1.068c-0.234-0.373-0.351-0.709-0.351-1.005c0-0.649,0.042-1.326,0.127-2.031
			c-0.634,0.564-1.247,1.101-1.839,1.607c-0.593,0.508-1.188,0.984-1.788,1.429c-0.6,0.443-1.212,0.852-1.84,1.226
			c-0.628,0.373-1.294,0.695-1.999,0.963c-0.211,0.085-0.394,0.127-0.551,0.127c-0.139,0-0.322-0.071-0.551-0.212
			c-0.223-0.142-0.443-0.319-0.653-0.54c-0.211-0.218-0.394-0.464-0.552-0.739c-0.153-0.275-0.231-0.54-0.231-0.794
			c0-0.578,0.108-1.222,0.328-1.934c0.219-0.712,0.535-1.445,0.951-2.201c0.416-0.754,0.924-1.507,1.523-2.262
			c0.599-0.756,1.279-1.467,2.042-2.138c0.76-0.67,1.6-1.275,2.517-1.82c0.917-0.541,1.895-0.975,2.94-1.299
			c0.196,0.028,0.45,0.116,0.76,0.264c0.312,0.147,0.602,0.301,0.868,0.456c0.508-1.452,1.089-2.909,1.744-4.368
			c0.656-1.459,1.354-2.862,2.095-4.209c0.74-1.346,1.512-2.607,2.315-3.785c0.804-1.177,1.607-2.222,2.412-3.131
			c0.805-0.91,1.597-1.646,2.38-2.211c0.782-0.563,1.524-0.91,2.232-1.036c0.308,0,0.636,0.102,0.982,0.307
			c0.345,0.205,0.672,0.451,0.983,0.739c0.31,0.291,0.575,0.589,0.793,0.9c0.219,0.311,0.356,0.571,0.412,0.782
			c0,0.65-0.162,1.404-0.486,2.265c-0.324,0.859-0.771,1.787-1.344,2.78c-0.569,0.993-1.246,2.035-2.03,3.119
			c-0.781,1.087-1.624,2.189-2.528,3.311c-0.901,1.121-1.849,2.238-2.844,3.352c-0.994,1.113-1.991,2.193-2.993,3.235
			c-0.424,1.438-0.758,2.811-1.004,4.115C72.604,34.181,72.48,35.361,72.48,36.419z M63.024,35.7c0.468,0,1.156-0.329,2.075-0.984
			c0.915-0.656,1.95-1.533,3.108-2.634c0.126-0.647,0.282-1.309,0.465-1.978c0.183-0.67,0.388-1.35,0.612-2.041
			c-0.817,0.549-1.618,1.178-2.399,1.883c-0.785,0.706-1.478,1.403-2.085,2.095c-0.604,0.691-1.096,1.335-1.469,1.935
			s-0.56,1.055-0.56,1.364C62.772,35.579,62.855,35.7,63.024,35.7z M83.099,10.53c-0.24,0-0.533,0.176-0.879,0.528
			c-0.346,0.353-0.734,0.842-1.162,1.47c-0.43,0.628-0.887,1.371-1.366,2.232c-0.479,0.86-0.964,1.798-1.458,2.813
			c-0.494,1.015-0.988,2.094-1.481,3.234c-0.493,1.143-0.959,2.299-1.395,3.469c1.057-1.295,2.062-2.597,3.014-3.901
			s1.788-2.542,2.505-3.713c0.72-1.169,1.292-2.242,1.714-3.215c0.424-0.972,0.635-1.776,0.635-2.411
			c0-0.085-0.003-0.191-0.01-0.316C83.208,10.593,83.168,10.53,83.099,10.53z"/>
		<path fill="#06004E" d="M80.475,39.93c-0.211,0-0.478-0.074-0.804-0.223c-0.322-0.148-0.635-0.332-0.93-0.549
			c-0.296-0.219-0.551-0.461-0.762-0.73c-0.211-0.268-0.317-0.529-0.317-0.783c0.142-0.62,0.331-1.332,0.571-2.137
			c0.24-0.803,0.497-1.621,0.771-2.453c0.276-0.831,0.563-1.645,0.868-2.443c0.303-0.796,0.576-1.504,0.824-2.124
			c0.245-0.621,0.462-1.122,0.645-1.503c0.185-0.381,0.305-0.571,0.36-0.571c0.085,0,0.296,0.091,0.635,0.277
			c0.338,0.183,0.695,0.403,1.067,0.665c0.374,0.261,0.709,0.535,1.006,0.825c0.296,0.288,0.442,0.538,0.442,0.75
			c0,0.042-0.007,0.096-0.021,0.159s-0.035,0.145-0.063,0.243c-0.113,0.354-0.258,0.769-0.434,1.248
			c-0.177,0.479-0.363,0.977-0.561,1.491c-0.198,0.514-0.396,1.029-0.593,1.544c-0.197,0.514-0.373,0.998-0.529,1.447
			c-0.156,0.453-0.283,0.847-0.381,1.185c-0.098,0.34-0.146,0.587-0.146,0.74c0,0.086,0.042,0.128,0.126,0.128
			c0.154,0,0.388-0.092,0.697-0.275c0.31-0.183,0.667-0.422,1.069-0.719c0.401-0.296,0.82-0.62,1.258-0.974
			c0.438-0.352,0.857-0.7,1.259-1.047c0.402-0.344,0.765-0.658,1.09-0.941c0.322-0.279,0.57-0.492,0.739-0.634
			c0.128,0.128,0.278,0.289,0.455,0.487c0.178,0.197,0.342,0.38,0.497,0.549c-0.311,0.311-0.699,0.688-1.162,1.131
			c-0.466,0.445-0.972,0.899-1.513,1.365c-0.543,0.465-1.107,0.93-1.692,1.396c-0.585,0.466-1.153,0.882-1.702,1.248
			c-0.552,0.365-1.065,0.662-1.545,0.888C81.222,39.817,80.813,39.93,80.475,39.93z"/>
	</g>
	<path fill="#38F99C" d="M88.852,19.964c-0.015,0.057-0.065,0.193-0.159,0.413c-0.092,0.218-0.2,0.472-0.328,0.761
		c-0.127,0.289-0.271,0.593-0.434,0.909c-0.161,0.318-0.321,0.61-0.475,0.878c-0.156,0.268-0.306,0.49-0.446,0.666
		c-0.14,0.177-0.253,0.265-0.338,0.265c-0.254-0.014-0.56-0.091-0.919-0.233c-0.36-0.141-0.705-0.299-1.037-0.476
		c-0.331-0.176-0.613-0.349-0.846-0.517c-0.231-0.17-0.35-0.29-0.35-0.36c0-0.297,0.086-0.68,0.255-1.154
		c0.169-0.47,0.365-0.929,0.592-1.375c0.226-0.442,0.455-0.828,0.688-1.152c0.233-0.325,0.412-0.487,0.539-0.487
		c0.255,0,0.563,0.081,0.932,0.244c0.365,0.162,0.722,0.35,1.065,0.561c0.348,0.211,0.645,0.419,0.89,0.624
		C88.728,19.734,88.852,19.879,88.852,19.964z"/>
</g>
</svg>
