<?xml version="1.0" encoding="utf-8"?>
<!-- Generator: Adobe Illustrator 13.0.0, SVG Export Plug-In . SVG Version: 6.00 Build 14948)  -->
<!DOCTYPE svg PUBLIC "-//W3C//DTD SVG 1.1//EN" "http://www.w3.org/Graphics/SVG/1.1/DTD/svg11.dtd">
<svg version="1.1" id="Layer_1" xmlns="http://www.w3.org/2000/svg" xmlns:xlink="http://www.w3.org/1999/xlink" x="0px" y="0px"
	 width="145px" height="43px" viewBox="0 0 145 43" enable-background="new 0 0 145 43" xml:space="preserve">
<g>
	<path d="M139.63,43H5.374c-3.008,0-5.371-2.365-5.371-5.375V5.376C0.003,2.365,2.366,0,5.374,0H139.63
		c3.007,0,5.37,2.365,5.37,5.376v32.249C145,40.635,142.637,43,139.63,43z"/>
	<path fill="#A6A6A6" d="M139.627,0.86c2.47,0,4.512,2.043,4.512,4.516v32.249c0,2.473-2.042,4.515-4.512,4.515H5.37
		c-2.47,0-4.511-2.042-4.511-4.515V5.376C0.859,2.903,2.9,0.86,5.37,0.86H139.627 M139.627,0H5.37C2.363,0,0,2.473,0,5.376v32.249
		C0,40.635,2.363,43,5.37,43h134.257c3.008,0,5.371-2.365,5.371-5.375V5.376C144.998,2.473,142.635,0,139.627,0z"/>
	<path fill="#FFFFFF" d="M50.911,10.966c0,0.86-0.216,1.612-0.753,2.15c-0.644,0.645-1.396,0.967-2.363,0.967
		c-0.966,0-1.718-0.322-2.362-0.967c-0.645-0.646-0.967-1.398-0.967-2.366s0.322-1.719,0.967-2.363
		c0.645-0.646,1.396-0.969,2.362-0.969c0.431,0,0.859,0.108,1.289,0.323c0.431,0.215,0.753,0.431,0.968,0.752l-0.537,0.538
		c-0.431-0.538-0.967-0.753-1.72-0.753c-0.644,0-1.288,0.215-1.718,0.753c-0.537,0.43-0.752,1.074-0.752,1.827
		s0.215,1.396,0.752,1.827s1.074,0.752,1.718,0.752c0.753,0,1.29-0.215,1.827-0.752c0.321-0.323,0.536-0.753,0.536-1.29h-2.363
		v-0.859h3.116V10.966z M55.851,8.278h-2.899v2.042h2.686v0.752h-2.686v2.044h2.899v0.859h-3.759V7.526h3.759V8.278z M59.396,13.976
		h-0.859V8.278H56.71V7.526h4.512v0.752h-1.826V13.976z M64.337,13.976V7.526h0.858v6.449H64.337z M68.848,13.976h-0.86V8.278
		h-1.826V7.526h4.404v0.752H68.74v5.697H68.848z M79.05,13.116c-0.644,0.645-1.396,0.967-2.362,0.967
		c-0.967,0-1.719-0.322-2.362-0.967c-0.646-0.646-0.967-1.398-0.967-2.366s0.321-1.719,0.967-2.363
		c0.644-0.646,1.396-0.969,2.362-0.969c0.966,0,1.719,0.323,2.362,0.969c0.646,0.645,0.968,1.396,0.968,2.363
		S79.695,12.47,79.05,13.116z M74.969,12.578c0.43,0.43,1.074,0.753,1.719,0.753c0.646,0,1.288-0.215,1.719-0.753
		c0.429-0.431,0.751-1.075,0.751-1.828s-0.214-1.397-0.751-1.827c-0.431-0.43-1.073-0.751-1.719-0.751
		c-0.645,0-1.289,0.215-1.719,0.751c-0.43,0.43-0.751,1.074-0.751,1.827S74.433,12.147,74.969,12.578z M81.198,13.976V7.526h0.967
		l3.115,5.052V7.526h0.859v6.449H85.28l-3.33-5.268v5.268H81.198z"/>
	<path fill="#FFFFFF" d="M73.144,23.435c-2.578,0-4.618,1.936-4.618,4.624c0,2.579,2.04,4.623,4.618,4.623
		c2.577,0,4.618-1.936,4.618-4.623C77.762,25.264,75.721,23.435,73.144,23.435z M73.144,30.746c-1.396,0-2.578-1.184-2.578-2.796
		c0-1.611,1.182-2.795,2.578-2.795c1.396,0,2.577,1.075,2.577,2.795C75.721,29.563,74.539,30.746,73.144,30.746z M63.154,23.435
		c-2.578,0-4.618,1.936-4.618,4.624c0,2.579,2.04,4.623,4.618,4.623s4.618-1.936,4.618-4.623
		C67.772,25.264,65.732,23.435,63.154,23.435z M63.154,30.746c-1.396,0-2.578-1.184-2.578-2.796c0-1.611,1.183-2.795,2.578-2.795
		c1.396,0,2.578,1.075,2.578,2.795C65.732,29.563,64.551,30.746,63.154,30.746z M51.233,24.833v1.935h4.617
		c-0.107,1.075-0.536,1.936-1.074,2.474c-0.645,0.645-1.719,1.396-3.543,1.396c-2.9,0-5.049-2.257-5.049-5.161
		c0-2.899,2.255-5.157,5.049-5.157c1.504,0,2.685,0.645,3.543,1.396l1.396-1.396c-1.181-1.075-2.685-1.936-4.832-1.936
		c-3.867,0-7.197,3.226-7.197,7.093c0,3.872,3.33,7.097,7.197,7.097c2.147,0,3.651-0.645,4.939-2.042
		c1.289-1.29,1.719-3.119,1.719-4.516c0-0.431,0-0.86-0.107-1.183H51.233L51.233,24.833z M99.995,26.339
		c-0.43-1.075-1.504-2.904-3.867-2.904c-2.362,0-4.297,1.829-4.297,4.624c0,2.579,1.935,4.623,4.512,4.623
		c2.041,0,3.33-1.29,3.759-2.044l-1.503-1.075c-0.537,0.754-1.182,1.291-2.256,1.291c-1.073,0-1.719-0.431-2.256-1.397l6.123-2.581
		L99.995,26.339L99.995,26.339z M93.765,27.843c0-1.719,1.396-2.688,2.363-2.688c0.752,0,1.504,0.43,1.719,0.969L93.765,27.843z
		 M88.716,32.251h2.042V18.813h-2.042V32.251z M85.495,24.403c-0.537-0.538-1.396-1.075-2.471-1.075
		c-2.256,0-4.404,2.042-4.404,4.622c0,2.581,2.041,4.517,4.404,4.517c1.074,0,1.934-0.538,2.363-1.075h0.107v0.644
		c0,1.721-0.967,2.688-2.471,2.688c-1.182,0-2.041-0.86-2.256-1.612l-1.719,0.752c0.537,1.183,1.826,2.688,4.082,2.688
		c2.363,0,4.296-1.397,4.296-4.73v-8.17h-1.933V24.403z M83.132,30.746c-1.396,0-2.578-1.184-2.578-2.796
		c0-1.611,1.183-2.795,2.578-2.795c1.396,0,2.471,1.184,2.471,2.795C85.603,29.563,84.528,30.746,83.132,30.746z M109.339,18.813
		h-4.833v13.438h2.04v-5.053h2.793c2.256,0,4.403-1.613,4.403-4.192S111.595,18.813,109.339,18.813z M109.446,25.264h-2.9v-4.622
		h2.9c1.504,0,2.362,1.289,2.362,2.258C111.702,24.08,110.842,25.264,109.446,25.264z M121.798,23.328
		c-1.504,0-3.007,0.645-3.544,2.042l1.825,0.754c0.43-0.754,1.074-0.969,1.826-0.969c1.074,0,2.041,0.646,2.147,1.72v0.108
		c-0.322-0.216-1.181-0.538-2.04-0.538c-1.934,0-3.867,1.075-3.867,3.011c0,1.826,1.611,3.011,3.33,3.011
		c1.396,0,2.041-0.646,2.577-1.291h0.107v1.075h1.934v-5.16C125.879,24.726,124.053,23.328,121.798,23.328z M121.583,30.746
		c-0.645,0-1.611-0.323-1.611-1.184c0-1.074,1.182-1.396,2.148-1.396c0.859,0,1.288,0.215,1.826,0.43
		C123.73,29.886,122.657,30.746,121.583,30.746z M132.86,23.65l-2.255,5.806h-0.107l-2.363-5.806h-2.148l3.545,8.17l-2.04,4.517
		h2.04l5.478-12.687H132.86L132.86,23.65z M114.816,32.251h2.041V18.813h-2.041V32.251z"/>
	<path fill="#46CBFF" d="M11.221,8.115c-0.321,0.323-0.429,0.859-0.429,1.506v23.757c0,0.646,0.125,1.088,0.447,1.411l0.197-0.006
		l13.317-13.122v-0.215L11.221,8.115z"/>
	<path fill="#FAD100" d="M28.999,26.124l-4.403-4.408v-0.321l4.441-4.343l0.069,0.042l5.264,3.01c1.503,0.86,1.503,2.257,0,3.116
		L28.999,26.124z"/>
	<path fill="#EA2E45" d="M29.157,26.041l-4.562-4.54L11.236,34.784c0.538,0.533,1.223,0.604,2.189,0.177l15.579-8.841L29.157,26.041
		z"/>
	<path fill="#4DF06F" d="M29.037,17.052L13.426,8.063c-0.967-0.537-1.673-0.483-2.209,0.054l13.379,13.384L29.037,17.052z"/>
</g>
</svg>
