<?xml version="1.0" encoding="utf-8"?>
<!-- Generator: Adobe Illustrator 13.0.0, SVG Export Plug-In . SVG Version: 6.00 Build 14948)  -->
<!DOCTYPE svg PUBLIC "-//W3C//DTD SVG 1.1//EN" "http://www.w3.org/Graphics/SVG/1.1/DTD/svg11.dtd">
<svg version="1.1" id="Layer_1" xmlns="http://www.w3.org/2000/svg" xmlns:xlink="http://www.w3.org/1999/xlink" x="0px" y="0px"
	 width="475px" height="625px" viewBox="0 0 475 625" enable-background="new 0 0 475 625" xml:space="preserve">
<g>
	<g>
		<g>
			<path fill="#38F99C" d="M174.041,182.155c0,4.297-4.5,7.813-10,7.813H54.203c-5.5,0-10-3.516-10-7.813s4.5-7.812,10-7.812
				h109.837C169.541,174.343,174.041,177.858,174.041,182.155z"/>
		</g>
		<ellipse fill="#33D2FD" cx="19.791" cy="182.155" rx="7.802" ry="7.813"/>
		<path fill="#F948B4" d="M474.999,182.155c0,4.296-4.5,7.812-10,7.812h-77.428c-5.5,0-10-3.516-10-7.812s4.5-7.812,10-7.812h77.428
			C470.499,174.343,474.999,177.858,474.999,182.155z"/>
		<ellipse fill="#38F99C" cx="352.641" cy="182.154" rx="7.802" ry="7.813"/>
	</g>
	<g>
		<g>
			<path fill="#33D2FD" d="M411.544,269.162c0,4.297-4.5,7.813-10,7.813H262.06c-5.5,0-10-3.516-10-7.813s4.5-7.813,10-7.813
				h139.484C407.044,261.349,411.544,264.865,411.544,269.162z"/>
		</g>
		<ellipse fill="#FECD0A" cx="436.41" cy="269.161" rx="7.802" ry="7.813"/>
		<path fill="#F948B4" d="M204.396,269.162c0,4.297-4.5,7.813-10,7.813h-86.041c-5.5,0-10-3.516-10-7.813s4.5-7.813,10-7.813h86.041
			C199.896,261.349,204.396,264.865,204.396,269.162z"/>
	</g>
	<path fill="#FECD0A" d="M227.981,617.187c0,4.297-4.5,7.813-10,7.813h-86.042c-5.5,0-10-3.516-10-7.813s4.5-7.813,10-7.813h86.042
		C223.481,609.375,227.981,612.89,227.981,617.187z"/>
	<g>
		<path fill="#F948B4" d="M381.319,356.167c0,4.297-4.5,7.813-10,7.813H245.878c-5.5,0-10-3.516-10-7.813s4.5-7.813,10-7.813
			h125.441C376.819,348.355,381.319,351.871,381.319,356.167z"/>
		<g>
			<path fill="#38F99C" d="M86.555,356.167c0,4.297-4.5,7.813-10,7.813h-5.943c-5.5,0-10-3.516-10-7.813s4.5-7.813,10-7.813h5.943
				C82.055,348.355,86.555,351.871,86.555,356.167z"/>
		</g>
		<ellipse fill="#33D2FD" cx="111.228" cy="356.167" rx="7.802" ry="7.813"/>
	</g>
	<g>
		<path fill="#FECD0A" d="M196.371,443.175c0,4.297-4.5,7.812-10,7.812H60.93c-5.5,0-10-3.515-10-7.812s4.5-7.811,10-7.811h125.441
			C191.871,435.365,196.371,438.878,196.371,443.175z"/>
		<ellipse fill="#8181FC" cx="25.738" cy="443.175" rx="7.802" ry="7.812"/>
		<path fill="#8181FC" d="M402.458,443.174c0,4.297-4.5,7.813-10,7.813h-5.943c-5.5,0-10-3.516-10-7.813s4.5-7.813,10-7.813h5.943
			C397.958,435.362,402.458,438.877,402.458,443.174z"/>
		<ellipse fill="#FECD0A" cx="351.713" cy="443.175" rx="7.802" ry="7.812"/>
		<ellipse fill="#38F99C" cx="427.131" cy="443.175" rx="7.802" ry="7.812"/>
	</g>
	<g>
		<g>
			<path fill="#38F99C" d="M474.243,530.181c0,4.297-4.5,7.813-10,7.813H375.03c-5.5,0-10-3.516-10-7.813s4.5-7.813,10-7.813h89.213
				C469.743,522.369,474.243,525.884,474.243,530.181z"/>
		</g>
		<path fill="#F948B4" d="M99.411,530.181c0,4.297-4.5,7.813-10,7.813H10c-5.5,0-10-3.516-10-7.813s4.5-7.813,10-7.813h79.411
			C94.911,522.369,99.411,525.884,99.411,530.181z"/>
		<g>
			<path fill="#33D2FD" d="M348.39,530.181c0,4.297-4.5,7.813-10,7.813h-22.459c-5.5,0-10-3.516-10-7.813s4.5-7.813,10-7.813h22.459
				C343.89,522.369,348.39,525.884,348.39,530.181z"/>
		</g>
		<ellipse fill="#38F99C" cx="124.407" cy="530.181" rx="7.802" ry="7.813"/>
	</g>
	<g>
		<path fill="#FECD0A" d="M212.863,95.079c0,4.297-4.5,7.813-10,7.813h-86.432c-5.5,0-10-3.516-10-7.813s4.5-7.813,10-7.813h86.432
			C208.363,87.266,212.863,90.782,212.863,95.079z"/>
		<ellipse fill="#38F99C" cx="81.241" cy="95.078" rx="7.802" ry="7.813"/>
		<g>
			<path fill="#38F99C" d="M428.794,95.219c0,4.296-4.5,7.812-10,7.812H293.354c-5.5,0-10-3.516-10-7.812s4.5-7.812,10-7.812
				h125.439C424.294,87.407,428.794,90.922,428.794,95.219z"/>
		</g>
	</g>
	<g>
		<path fill="#F948B4" d="M201.505,7.812c0,4.296-4.5,7.812-10,7.812h-79.41c-5.5,0-10-3.516-10-7.812s4.5-7.812,10-7.812h79.41
			C197.005,0,201.505,3.516,201.505,7.812z"/>
		<g>
			<path fill="#33D2FD" d="M314.138,8.472c0,4.297-4.5,7.813-10,7.813h-22.457c-5.5,0-10-3.516-10-7.813s4.5-7.813,10-7.813h22.457
				C309.638,0.659,314.138,4.175,314.138,8.472z"/>
		</g>
		<ellipse fill="#38F99C" cx="226.502" cy="7.813" rx="7.802" ry="7.812"/>
	</g>
</g>
</svg>
