<?xml version="1.0" encoding="utf-8"?>
<!-- Generator: Adobe Illustrator 13.0.0, SVG Export Plug-In . SVG Version: 6.00 Build 14948)  -->
<!DOCTYPE svg PUBLIC "-//W3C//DTD SVG 1.1//EN" "http://www.w3.org/Graphics/SVG/1.1/DTD/svg11.dtd">
<svg version="1.1" id="Layer_1" xmlns="http://www.w3.org/2000/svg" xmlns:xlink="http://www.w3.org/1999/xlink" x="0px" y="0px"
	 width="270px" height="265px" viewBox="0 0 270 265" enable-background="new 0 0 270 265" xml:space="preserve">
<rect opacity="0" fill="#FFFFFF" width="270" height="265"/>
<g>
	<g>
		<g>
			<path fill="#38F99C" d="M98.929,77.744c0,2.437-2.352,4.428-5.226,4.428H30.351c-2.874,0-5.225-1.992-5.225-4.428
				c0-2.435,2.351-4.426,5.225-4.426h63.353C96.578,73.318,98.929,75.31,98.929,77.744z"/>
		</g>
		<ellipse fill="#33D2FD" cx="11.25" cy="77.744" rx="4.435" ry="4.428"/>
		<path fill="#F948B4" d="M270,77.744c0,2.437-2.352,4.428-5.225,4.428h-44.93c-2.875,0-5.227-1.992-5.227-4.428
			c0-2.435,2.352-4.426,5.227-4.426h44.93C267.648,73.318,270,75.31,270,77.744z"/>
		<ellipse fill="#FFFFFF" cx="200.448" cy="77.744" rx="4.435" ry="4.428"/>
	</g>
	<g>
		<g>
			<path fill="#33D2FD" d="M233.932,114.312c0,2.433-2.352,4.427-5.227,4.427h-80.203c-2.875,0-5.227-1.994-5.227-4.427
				c0-2.437,2.352-4.429,5.227-4.429h80.203C231.58,109.882,233.932,111.875,233.932,114.312z"/>
		</g>
		<ellipse fill="#FFE600" cx="248.065" cy="114.312" rx="4.435" ry="4.427"/>
		<path fill="#F948B4" d="M116.184,114.312c0,2.433-2.352,4.427-5.225,4.427H61.132c-2.874,0-5.226-1.994-5.226-4.427
			c0-2.437,2.352-4.429,5.226-4.429h49.827C113.833,109.882,116.184,111.875,116.184,114.312z"/>
	</g>
	<path fill="#FFE600" d="M129.589,260.573c0,2.436-2.351,4.427-5.224,4.427H74.538c-2.874,0-5.225-1.991-5.225-4.427
		c0-2.437,2.351-4.428,5.225-4.428h49.828C127.239,256.146,129.589,258.137,129.589,260.573z"/>
	<g>
		<path fill="#F948B4" d="M216.75,150.875c0,2.436-2.352,4.428-5.225,4.428h-72.223c-2.873,0-5.225-1.992-5.225-4.428
			c0-2.434,2.352-4.427,5.225-4.427h72.223C214.398,146.448,216.75,148.441,216.75,150.875z"/>
		<g>
			<path fill="#38F99C" d="M49.201,150.875c0,2.436-2.351,4.428-5.225,4.428h-4.296c-2.874,0-5.225-1.992-5.225-4.428
				c0-2.434,2.351-4.427,5.225-4.427h4.296C46.85,146.448,49.201,148.441,49.201,150.875z"/>
		</g>
		<ellipse fill="#33D2FD" cx="63.225" cy="150.875" rx="4.435" ry="4.428"/>
	</g>
	<g>
		<path fill="#FFE600" d="M111.623,187.442c0,2.435-2.352,4.427-5.225,4.427H34.175c-2.873,0-5.225-1.992-5.225-4.427
			c0-2.436,2.352-4.428,5.225-4.428h72.223C109.271,183.015,111.623,185.007,111.623,187.442z"/>
		<ellipse fill="#8181FC" cx="14.631" cy="187.44" rx="4.435" ry="4.429"/>
		<path fill="#8181FC" d="M228.768,187.442c0,2.435-2.352,4.427-5.227,4.427h-4.297c-2.873,0-5.225-1.992-5.225-4.427
			c0-2.436,2.352-4.428,5.225-4.428h4.297C226.416,183.015,228.768,185.007,228.768,187.442z"/>
		<ellipse fill="#FECD0A" cx="199.921" cy="187.44" rx="4.435" ry="4.429"/>
		<ellipse fill="#38F99C" cx="242.791" cy="187.44" rx="4.436" ry="4.429"/>
	</g>
	<g>
		<g>
			<path fill="#38F99C" d="M269.57,224.008c0,2.436-2.35,4.426-5.225,4.426h-51.629c-2.875,0-5.225-1.99-5.225-4.426
				c0-2.435,2.35-4.428,5.225-4.428h51.629C267.221,219.58,269.57,221.573,269.57,224.008z"/>
		</g>
		<path fill="#F948B4" d="M56.507,224.008c0,2.436-2.351,4.426-5.225,4.426H5.225c-2.873,0-5.225-1.99-5.225-4.426
			c0-2.435,2.352-4.428,5.225-4.428h46.058C54.156,219.58,56.507,221.573,56.507,224.008z"/>
		<g>
			<path fill="#33D2FD" d="M198.031,224.008c0,2.436-2.35,4.426-5.225,4.426h-13.684c-2.873,0-5.225-1.99-5.225-4.426
				c0-2.435,2.352-4.428,5.225-4.428h13.684C195.682,219.58,198.031,221.573,198.031,224.008z"/>
		</g>
		<ellipse fill="#38F99C" cx="70.717" cy="224.008" rx="4.435" ry="4.426"/>
	</g>
	<g>
		<path fill="#FFE600" d="M120.997,41.14c0,2.435-2.351,4.427-5.225,4.427H65.723c-2.873,0-5.225-1.992-5.225-4.427
			c0-2.435,2.352-4.427,5.225-4.427h50.049C118.646,36.713,120.997,38.705,120.997,41.14z"/>
		<ellipse fill="#38F99C" cx="46.179" cy="41.14" rx="4.435" ry="4.427"/>
		<g>
			<path fill="#38F99C" d="M243.736,41.22c0,2.435-2.352,4.427-5.225,4.427h-72.223c-2.873,0-5.225-1.992-5.225-4.427
				s2.352-4.429,5.225-4.429h72.223C241.385,36.791,243.736,38.785,243.736,41.22z"/>
		</g>
	</g>
	<g>
		<path fill="#F948B4" d="M114.541,4.427c0,2.435-2.352,4.427-5.225,4.427H63.258c-2.874,0-5.225-1.992-5.225-4.427
			C58.034,1.991,60.385,0,63.258,0h46.058C112.189,0,114.541,1.991,114.541,4.427z"/>
		<g>
			<path fill="#33D2FD" d="M178.563,4.799c0,2.437-2.35,4.429-5.225,4.429h-13.684c-2.873,0-5.225-1.992-5.225-4.429
				c0-2.433,2.352-4.425,5.225-4.425h13.684C176.213,0.375,178.563,2.367,178.563,4.799z"/>
		</g>
		<ellipse fill="#38F99C" cx="128.749" cy="4.427" rx="4.435" ry="4.427"/>
	</g>
</g>
</svg>
