<?xml version="1.0" encoding="utf-8"?>
<!-- Generator: Adobe Illustrator 13.0.0, SVG Export Plug-In . SVG Version: 6.00 Build 14948)  -->
<!DOCTYPE svg PUBLIC "-//W3C//DTD SVG 1.1//EN" "http://www.w3.org/Graphics/SVG/1.1/DTD/svg11.dtd">
<svg version="1.1" id="Layer_1" xmlns="http://www.w3.org/2000/svg" xmlns:xlink="http://www.w3.org/1999/xlink" x="0px" y="0px"
	 width="270px" height="265px" viewBox="0 0 270 265" enable-background="new 0 0 270 265" xml:space="preserve">
<rect opacity="0" fill="#FFFFFF" width="270" height="265"/>
<g>
	<g>
		<path fill="#F948B4" d="M209.162,110.386l-66.191-50.363c-2.941-2.25-7.759-2.257-10.706-0.013L63.64,111.873
			c-0.019,0.016,0.535-0.014,0.517,0h146.953C211.088,111.855,210.764,111.538,209.162,110.386z"/>
	</g>
	<g>
		<path fill="#E237A5" d="M64.287,111.873l60.497,45.731l7.59-5.698c2.97-2.228,7.824-2.224,10.787,0.012l8.117,6.124l59.92-46.099
			c-0.029-0.025-0.061-0.042-0.09-0.07H64.287z"/>
	</g>
	<g>
		<path fill="#FBFBFB" d="M202.408,163.314c0,3.711-3.037,6.744-6.756,6.744H79.691c-3.717,0-6.757-3.033-6.757-6.744V59.441
			c0-3.711,3.04-6.743,6.757-6.743h115.961c3.719,0,6.756,3.032,6.756,6.743V163.314z"/>
	</g>
	<rect x="118.74" y="67.464" fill="#38F99C" width="39.17" height="30.919"/>
	<g>
		<g>
			<rect x="104.769" y="107.117" fill="#A2A6DD" width="71.079" height="1.326"/>
			<rect x="95.951" y="113.189" fill="#A2A6DD" width="79.897" height="1.325"/>
			<rect x="95.951" y="119.26" fill="#A2A6DD" width="79.897" height="1.326"/>
			<rect x="95.951" y="125.334" fill="#A2A6DD" width="41.889" height="1.323"/>
			<rect x="105.513" y="131.402" fill="#A2A6DD" width="70.334" height="1.326"/>
		</g>
	</g>
	<g>
		<g>
			<rect x="104.769" y="139.432" fill="#A2A6DD" width="71.079" height="1.324"/>
			<rect x="95.951" y="145.503" fill="#A2A6DD" width="79.897" height="1.326"/>
			<rect x="95.951" y="151.572" fill="#A2A6DD" width="79.897" height="1.328"/>
			<rect x="95.951" y="157.646" fill="#A2A6DD" width="41.889" height="1.325"/>
			<rect x="105.513" y="163.717" fill="#A2A6DD" width="70.334" height="1.326"/>
		</g>
	</g>
	<path fill="#F948B4" d="M211.182,111.955l-59.904,46.087l-8.117-6.124c-2.963-2.235-7.817-2.239-10.787-0.012l-7.59,5.698
		l-60.497-45.731H63.64c-1.354,1.235-2.22,2.995-2.22,4.959v81.969c0,3.708,3.04,6.743,6.753,6.743H206.58
		c3.715,0,6.752-3.035,6.752-6.743v-81.969C213.332,114.907,212.492,113.188,211.182,111.955z M211.109,111.873h-0.002
		c0.002,0.004,0.006,0.006,0.008,0.008C211.115,111.879,211.113,111.877,211.109,111.873z"/>
	<path fill="#E237A5" d="M143.16,151.918c-2.963-2.235-7.817-2.239-10.787-0.012l-68.902,51.715c1.22,1.186,2.877,1.924,4.701,1.924
		H206.58c1.918,0,3.648-0.82,4.881-2.115L143.16,151.918z"/>
	<path opacity="0.1" fill="#06004E" d="M147.004,154.795l-3.844-2.877l8.117,6.124l59.904-46.087L147.004,154.795z M124.784,157.604
		l4.307-3.233l-64.803-42.498L124.784,157.604z"/>
</g>
</svg>
