<?xml version="1.0" encoding="utf-8"?>
<!-- Generator: Adobe Illustrator 13.0.0, SVG Export Plug-In . SVG Version: 6.00 Build 14948)  -->
<!DOCTYPE svg PUBLIC "-//W3C//DTD SVG 1.1//EN" "http://www.w3.org/Graphics/SVG/1.1/DTD/svg11.dtd">
<svg version="1.1" id="Layer_1" xmlns="http://www.w3.org/2000/svg" xmlns:xlink="http://www.w3.org/1999/xlink" x="0px" y="0px"
	 width="200px" height="192px" viewBox="0 0 200 192" enable-background="new 0 0 200 192" xml:space="preserve">
<rect fill="#FFFFFF" fill-opacity="0" width="200" height="192"/>
<g>
	<ellipse fill="#FECD0A" cx="181.732" cy="132.441" rx="3.136" ry="3.121"/>
	<g>
		<g>
			<path fill="#FECD0A" d="M65.273,54.936c0,1.721-1.8,3.129-4,3.129H16.975c-2.2,0-4-1.408-4-3.129s1.8-3.128,4-3.128h44.298
				C63.473,51.808,65.273,53.215,65.273,54.936z"/>
		</g>
		<ellipse fill="#33D2FD" cx="3.142" cy="54.936" rx="3.142" ry="3.129"/>
		<g>
			<path fill="#F948B4" d="M199.866,54.936c0,1.721-1.8,3.128-4,3.128h-31.243c-2.2,0-4-1.407-4-3.128s1.8-3.128,4-3.128h31.243
				C198.066,51.808,199.866,53.215,199.866,54.936z"/>
		</g>
		<ellipse fill="#FECD0A" cx="150.581" cy="54.934" rx="3.144" ry="3.13"/>
		<g>
			<path fill="#33D2FD" d="M182.152,80.774c0,1.721-1.801,3.129-4,3.129h-56.237c-2.2,0-4-1.408-4-3.129c0-1.721,1.8-3.128,4-3.128
				h56.237C180.352,77.646,182.152,79.053,182.152,80.774z"/>
		</g>
		<g>
			<path fill="#F948B4" d="M71.688,80.774c0,1.721-1.8,3.129-4,3.129H32.974c-2.2,0-4-1.408-4-3.129c0-1.721,1.8-3.128,4-3.128
				h34.714C69.888,77.646,71.688,79.053,71.688,80.774z"/>
		</g>
		<g>
			<path fill="#FECD0A" d="M100.368,184.125c0,1.721-1.8,3.129-4,3.129H61.655c-2.2,0-4-1.408-4-3.129s1.8-3.129,4-3.129h34.712
				C98.568,180.996,100.368,182.404,100.368,184.125z"/>
		</g>
		<g>
			<path fill="#FECD0A" d="M25.53,106.611c0,1.721-1.8,3.129-4,3.129h-2.45c-2.2,0-4-1.408-4-3.129s1.8-3.127,4-3.127h2.45
				C23.73,103.484,25.53,104.891,25.53,106.611z"/>
		</g>
		<path fill="#33D2FD" d="M56.483,106.613c0,1.727-1.407,3.127-3.143,3.127c-1.735,0-3.142-1.4-3.142-3.127
			c0-1.73,1.407-3.129,3.142-3.129C55.077,103.484,56.483,104.883,56.483,106.613z"/>
		<ellipse fill="#8181FC" cx="24.366" cy="132.449" rx="3.142" ry="3.129"/>
		<ellipse fill="#FECD0A" cx="164.157" cy="132.449" rx="3.143" ry="3.129"/>
		<g>
			<path fill="#FECD0A" d="M185.068,158.287c0,1.721-1.801,3.129-4,3.129h-35.991c-2.199,0-4-1.408-4-3.129s1.801-3.129,4-3.129
				h35.991C183.268,155.158,185.068,156.566,185.068,158.287z"/>
		</g>
		<g>
			<path fill="#F948B4" d="M48.581,158.287c0,1.721-1.8,3.129-4,3.129H12.539c-2.2,0-4-1.408-4-3.129s1.8-3.129,4-3.129h32.042
				C46.78,155.158,48.581,156.566,48.581,158.287z"/>
		</g>
		<g>
			<path fill="#33D2FD" d="M113.869,158.287c0,1.721-1.801,3.129-4,3.129h-9.104c-2.199,0-4-1.408-4-3.129s1.801-3.129,4-3.129
				h9.104C112.068,155.158,113.869,156.566,113.869,158.287z"/>
		</g>
		<ellipse fill="#FECD0A" cx="58.649" cy="158.287" rx="3.142" ry="3.129"/>
		<ellipse fill="#FECD0A" cx="29.597" cy="29.069" rx="3.143" ry="3.128"/>
		<g>
			<path fill="#FECD0A" d="M181.254,29.126c0,1.721-1.8,3.128-4,3.128h-50.582c-2.199,0-4-1.408-4-3.128c0-1.72,1.801-3.128,4-3.128
				h50.582C179.455,25.998,181.254,27.405,181.254,29.126z"/>
		</g>
		<g>
			<path fill="#F948B4" d="M89.705,3.128c0,1.721-1.8,3.128-4,3.128H53.662c-2.2,0-4-1.408-4-3.128c0-1.72,1.8-3.128,4-3.128h32.043
				C87.904,0,89.705,1.408,89.705,3.128z"/>
		</g>
		<g>
			<path fill="#33D2FD" d="M135.073,3.393c0,1.721-1.802,3.128-4,3.128h-9.104c-2.199,0-4-1.407-4-3.128s1.801-3.128,4-3.128h9.104
				C133.271,0.265,135.073,1.672,135.073,3.393z"/>
		</g>
		<ellipse fill="#FECD0A" cx="99.772" cy="3.128" rx="3.142" ry="3.129"/>
	</g>
</g>
</svg>
