<?xml version="1.0" encoding="utf-8"?>
<!-- Generator: Adobe Illustrator 13.0.0, SVG Export Plug-In . SVG Version: 6.00 Build 14948)  -->
<!DOCTYPE svg PUBLIC "-//W3C//DTD SVG 1.1//EN" "http://www.w3.org/Graphics/SVG/1.1/DTD/svg11.dtd">
<svg version="1.1" id="Layer_1" xmlns="http://www.w3.org/2000/svg" xmlns:xlink="http://www.w3.org/1999/xlink" x="0px" y="0px"
	 width="100px" height="86.923px" viewBox="0 0 100 86.923" enable-background="new 0 0 100 86.923" xml:space="preserve">
<g>
	<g>
		<path fill="#38F99C" d="M10.168,71.464c0,2.731,2.234,4.964,4.966,4.964h73.698c2.73,0,4.965-2.232,4.965-4.964V19.355
			c0-2.731-2.234-4.964-4.965-4.964H15.134c-2.731,0-4.966,2.233-4.966,4.964V71.464z"/>
	</g>
	<path fill="#06004E" d="M92.553,0H23.21c-4.111,0.008-7.437,3.333-7.444,7.447l-0.001,6.041v2.275H7.447
		c-4.111,0.007-7.437,3.333-7.446,7.447L0,79.479h0.001c0.009,4.109,3.335,7.437,7.446,7.444h69.342
		c4.111-0.008,7.438-3.335,7.445-7.444V71.16h8.318c4.111-0.008,7.436-3.335,7.443-7.444L100,7.447
		C99.988,3.333,96.664,0.008,92.553,0z M4.966,23.21c0.003-1.35,1.134-2.481,2.481-2.484h8.317l-0.001,14.027v3.849H4.966V23.21z
		 M79.271,79.479c-0.002,1.348-1.135,2.479-2.482,2.481L7.447,81.957c-1.347,0-2.478-1.131-2.481-2.479V43.565h10.797v20.15h0.003
		c0.008,4.109,3.333,7.437,7.444,7.444h56.061V79.479z M95.033,63.716c-0.002,1.347-1.133,2.479-2.48,2.481L23.21,66.194
		c-1.347,0-2.479-1.132-2.481-2.479V27.803h74.304V63.716z M95.033,22.84H20.729V7.447c0.003-1.351,1.134-2.481,2.481-2.485
		l69.342,0.003c1.348,0,2.479,1.131,2.48,2.481V22.84z M31.841,10.877h-3.276c-0.765,0-1.386,0.619-1.386,1.387l-0.001,3.274
		c0.001,0.767,0.622,1.386,1.387,1.387h3.276c0.764-0.001,1.384-0.62,1.386-1.387v-3.274C33.225,11.496,32.605,10.877,31.841,10.877
		z M42.638,10.877h-3.274c-0.765,0-1.386,0.619-1.387,1.387v3.274c0.001,0.767,0.622,1.386,1.387,1.387h3.274
		c0.766-0.001,1.386-0.62,1.388-1.387v-3.274C44.024,11.496,43.404,10.877,42.638,10.877z M53.438,10.877h-3.275
		c-0.766,0-1.387,0.619-1.387,1.387l-0.001,3.274c0.001,0.767,0.623,1.386,1.389,1.387h3.275c0.764-0.001,1.385-0.62,1.385-1.387
		v-3.274C54.822,11.496,54.201,10.877,53.438,10.877z"/>
</g>
</svg>
