<?xml version="1.0" encoding="utf-8"?>
<!-- Generator: Adobe Illustrator 13.0.0, SVG Export Plug-In . SVG Version: 6.00 Build 14948)  -->
<!DOCTYPE svg PUBLIC "-//W3C//DTD SVG 1.1//EN" "http://www.w3.org/Graphics/SVG/1.1/DTD/svg11.dtd">
<svg version="1.1" id="Layer_1" xmlns="http://www.w3.org/2000/svg" xmlns:xlink="http://www.w3.org/1999/xlink" x="0px" y="0px"
	 width="100px" height="100px" viewBox="0 0 100 100" enable-background="new 0 0 100 100" xml:space="preserve">
<g>
	<g>
		<path fill="#38F99C" d="M16.646,66.25c0,2.75,2.25,5,5,5H95c2.75,0,5-2.25,5-5V14.591c0-2.75-2.25-5-5-5H21.646
			c-2.75,0-5,2.25-5,5V66.25z"/>
	</g>
	<path fill="#06004E" d="M91.709,7.277c-0.324-0.044-0.654-0.075-0.99-0.076H86.76H51.545V1.974c0-1.086-0.892-1.974-1.98-1.974
		h-0.988c-1.088,0-1.979,0.888-1.979,1.974v5.227h-35.22H7.422c-0.337,0-0.666,0.031-0.99,0.076C2.802,7.765,0.007,10.852,0,14.603
		v2.22c0.007,3.754,2.802,6.837,6.433,7.326v49.17c0.008,4.088,3.321,7.393,7.422,7.4v0.002h20.237l-7.53,12.986
		c-0.024,0.043-0.039,0.088-0.058,0.131l-1.57,2.705c-0.546,0.941-0.221,2.154,0.722,2.699l0.856,0.494
		c0.941,0.543,2.158,0.219,2.704-0.721l9.351-16.125c0.025-0.041,0.039-0.088,0.059-0.131l1.181-2.039h6.691v17.305
		c0,1.086,0.892,1.973,1.98,1.973h0.988c1.088,0,1.979-0.887,1.979-1.973V80.721h6.873l1.232,2.123
		c0.01,0.016,0.014,0.033,0.021,0.047l9.352,16.125c0.543,0.939,1.762,1.264,2.703,0.721l0.857-0.494
		c0.943-0.545,1.268-1.758,0.723-2.699l-1.998-3.445c-0.01-0.018-0.012-0.033-0.021-0.049l-7.15-12.328h20.25
		c4.098-0.01,7.412-3.314,7.422-7.402v-49.17c3.629-0.488,6.424-3.572,6.434-7.326v-2.22C98.133,10.852,95.338,7.765,91.709,7.277z
		 M86.76,73.318c-0.002,1.34-1.131,2.467-2.473,2.469l-70.432-0.002v0.002c-1.347-0.002-2.472-1.129-2.477-2.469V24.224h12.994
		v21.118c-3.643,1.066-6.307,4.418-6.31,8.398c0.003,4.838,3.933,8.76,8.783,8.76c4.852,0,8.782-3.922,8.786-8.76
		c-0.002-3.98-2.666-7.332-6.311-8.398V24.224H86.76V73.318z M26.845,49.917c2.117,0.003,3.832,1.713,3.835,3.823
		c-0.003,2.113-1.718,3.822-3.835,3.826c-2.119-0.004-3.831-1.713-3.835-3.826C23.015,51.63,24.727,49.92,26.845,49.917z
		 M93.191,16.822c-0.002,0.99-0.617,1.859-1.482,2.249c-0.305,0.138-0.639,0.219-0.99,0.219H86.76H11.378H7.422
		c-0.35,0-0.686-0.081-0.99-0.219c-0.864-0.389-1.483-1.258-1.484-2.249v-2.22c0.001-0.99,0.621-1.86,1.484-2.249
		c0.304-0.137,0.64-0.218,0.99-0.219h3.956H86.76h3.959c0.352,0.001,0.686,0.082,0.99,0.219c0.865,0.39,1.48,1.259,1.482,2.249
		V16.822z"/>
</g>
</svg>
