<?xml version="1.0" encoding="utf-8"?>
<!-- Generator: Adobe Illustrator 13.0.0, SVG Export Plug-In . SVG Version: 6.00 Build 14948)  -->
<!DOCTYPE svg PUBLIC "-//W3C//DTD SVG 1.1//EN" "http://www.w3.org/Graphics/SVG/1.1/DTD/svg11.dtd">
<svg version="1.1" id="Layer_1" xmlns="http://www.w3.org/2000/svg" xmlns:xlink="http://www.w3.org/1999/xlink" x="0px" y="0px"
	 width="92.532px" height="100px" viewBox="0 0 92.532 100" enable-background="new 0 0 92.532 100" xml:space="preserve">
<g>
	<g>
		<path fill="#38F99C" d="M19.53,84.398c0,2.869,2.348,5.219,5.217,5.219h53.942c2.87,0,5.218-2.35,5.218-5.219V42.806
			c0-2.869-2.348-5.217-5.218-5.217H24.747c-2.869,0-5.217,2.348-5.217,5.217V84.398z"/>
	</g>
	<path fill="#06004E" d="M88.584,6.854l-9.52-5.425c-3.761-2.134-8.526-0.825-10.674,2.922L45.694,44.177h-4.611L34.091,26.84
		c2.619-2.105,3.676-5.744,2.359-9.024l-0.454-1.127c-1.328-3.277-4.612-5.163-7.96-4.865l-2.793-6.928
		c-1.626-4.002-6.175-5.938-10.185-4.33L4.897,4.664c-4.006,1.623-5.938,6.172-4.333,10.183l2.792,6.928
		c-2.619,2.106-3.675,5.745-2.361,9.027l0.455,1.127c1.329,3.274,4.615,5.163,7.962,4.862l2.977,7.386h-0.772
		c-0.721,0.002-1.415,0.107-2.077,0.291c-3.311,0.915-5.742,3.936-5.749,7.538v2.258c0.007,3.6,2.433,6.615,5.737,7.531v30.379
		c0.011,4.324,3.505,7.818,7.828,7.826h51.477c4.323-0.008,7.818-3.502,7.825-7.826l0.003-30.375c3.305-0.92,5.73-3.936,5.737-7.533
		v-2.26c-0.007-3.602-2.438-6.622-5.75-7.538c-0.143-0.039-0.296-0.06-0.441-0.092l15.302-26.849
		C93.639,13.768,92.333,9,88.584,6.854z M52.911,42.046l3.739,2.131h-4.952L52.911,42.046z M35.455,44.177h-5.906l-5.25-13.025
		l5.08-2.048L35.455,44.177z M18.018,44.177l-3.638-9.024l5.078-2.048l4.465,11.072H18.018z M6.849,9.501L17.01,5.405
		c1.314-0.527,2.861,0.129,3.393,1.441l2.667,6.613L8.072,19.509l-2.667-6.613C4.875,11.582,5.534,10.035,6.849,9.501z
		 M7.083,31.013c-0.34-0.269-0.623-0.615-0.794-1.035l-0.455-1.127c-0.168-0.423-0.204-0.869-0.146-1.297
		c0.123-0.906,0.699-1.737,1.592-2.1l2.742-1.107l14.999-6.044l2.742-1.107c0.894-0.357,1.888-0.159,2.604,0.412l1.393,3.453
		c-0.121,0.908-0.699,1.742-1.591,2.102L9.685,31.421C8.792,31.78,7.799,31.581,7.083,31.013z M71.443,92.174
		c-0.003,1.418-1.19,2.605-2.609,2.609H17.356c-1.418-0.004-2.605-1.191-2.611-2.609l0.002-30.086l56.695,0.004V92.174z
		 M76.662,50.474c0.321,0.434,0.519,0.961,0.521,1.532v2.26c-0.002,0.57-0.199,1.096-0.521,1.529
		c-0.48,0.646-1.24,1.076-2.089,1.078h-3.13H14.748h-3.13c-0.849-0.002-1.61-0.432-2.089-1.078c-0.322-0.434-0.52-0.961-0.521-1.531
		v-2.258c0.001-0.57,0.199-1.097,0.521-1.532c0.479-0.646,1.24-1.078,2.089-1.081h3.13h56.695h3.13
		C75.422,49.396,76.181,49.829,76.662,50.474z M86.975,14.942L70.313,44.177h-10.15c0.075-0.091,0.145-0.182,0.204-0.285
		l0.516-0.905c0.568-0.998,0.218-2.279-0.779-2.848l-4.607-2.625l5.332-9.36l8.01,4.565c0.997,0.567,2.278,0.216,2.846-0.78
		l0.516-0.907c0.569-0.996,0.218-2.277-0.778-2.846l-8.01-4.563l5.334-9.36l4.608,2.627c0.998,0.568,2.278,0.217,2.848-0.78
		l0.516-0.907c0.568-0.997,0.218-2.277-0.779-2.846L71.328,9.73l1.595-2.795c0.703-1.231,2.325-1.674,3.56-0.973L86,11.386
		C87.228,12.09,87.672,13.709,86.975,14.942z"/>
</g>
</svg>
