<?xml version="1.0" encoding="utf-8"?>
<!-- Generator: Adobe Illustrator 13.0.0, SVG Export Plug-In . SVG Version: 6.00 Build 14948)  -->
<!DOCTYPE svg PUBLIC "-//W3C//DTD SVG 1.1//EN" "http://www.w3.org/Graphics/SVG/1.1/DTD/svg11.dtd">
<svg version="1.1" id="Layer_1" xmlns="http://www.w3.org/2000/svg" xmlns:xlink="http://www.w3.org/1999/xlink" x="0px" y="0px"
	 width="100px" height="86.681px" viewBox="0 0 100 86.681" enable-background="new 0 0 100 86.681" xml:space="preserve">
<g>
	<g>
		<path fill="#38F99C" d="M10.271,59.951c0,2.746,2.247,4.992,4.991,4.992h74.093c2.746,0,4.992-2.246,4.992-4.992V7.563
			c0-2.745-2.246-4.991-4.992-4.991H15.262c-2.744,0-4.991,2.246-4.991,4.991V59.951z"/>
	</g>
	<path fill="#06004E" d="M92.512,27.951h-5.301V7.488C87.199,3.353,83.857,0.011,79.725,0H7.49C3.354,0.011,0.011,3.353,0.003,7.488
		L0,66.218h0.003c0.008,4.133,3.351,7.477,7.487,7.484h27.942v7.988h-1.893c-1.098,0-1.997,0.9-1.997,1.996v1
		c0,1.096,0.898,1.994,1.997,1.994h20.34c1.1,0,1.996-0.898,1.996-1.994v-1c0-1.096-0.896-1.996-1.996-1.996h-1.893v-7.988h15.211
		v5.244c0.006,4.135,3.35,7.477,7.486,7.484h17.828c4.135-0.008,7.479-3.35,7.488-7.484V35.439
		C99.99,31.304,96.646,27.959,92.512,27.951z M46.996,81.691h-6.573v-7.988h6.573V81.691z M67.197,68.714H7.49
		c-1.359-0.004-2.495-1.143-2.498-2.496V54.654h62.205V68.714z M67.197,35.439v14.224H4.992V7.488
		C4.995,6.131,6.131,4.996,7.49,4.992h72.235c1.355,0.003,2.49,1.139,2.492,2.496v20.463h-7.533
		C70.547,27.959,67.203,31.304,67.197,35.439z M95.01,78.947c-0.004,1.354-1.141,2.492-2.498,2.494H74.684
		c-1.355-0.002-2.494-1.141-2.496-2.494V35.439c0.002-1.357,1.141-2.495,2.496-2.496h17.828c1.357,0.001,2.494,1.139,2.498,2.496
		V78.947z M77.352,74.455H89.83v-4.992H77.352V74.455z"/>
</g>
</svg>
